<?xml version="1.0" encoding="utf-8"?>
<!-- Generator: Adobe Illustrator 19.0.0, SVG Export Plug-In . SVG Version: 6.00 Build 0)  -->
<svg version="1.1" id="Layer_1" xmlns="http://www.w3.org/2000/svg" xmlns:xlink="http://www.w3.org/1999/xlink" x="0px" y="0px"
	 viewBox="0 0 1366 800" style="enable-background:new 0 0 1366 800;" xml:space="preserve">
<style type="text/css">
	.st0{clip-path:url(#SVGID_2_);}
	.st1{opacity:0.75;clip-path:url(#SVGID_4_);}
	.st2{clip-path:url(#SVGID_6_);fill:#D5443F;}
	.st3{clip-path:url(#SVGID_8_);fill:#D5443F;}
	.st4{clip-path:url(#SVGID_10_);fill:#9C27B0;}
	.st5{clip-path:url(#SVGID_12_);fill:#9C27B0;}
	.st6{clip-path:url(#SVGID_14_);fill:#9C27B0;}
	.st7{clip-path:url(#SVGID_16_);fill:#9C27B0;}
	.st8{clip-path:url(#SVGID_18_);fill:#2A92C5;}
	.st9{clip-path:url(#SVGID_20_);fill:#FF9800;}
	.st10{clip-path:url(#SVGID_22_);fill:#2A92C5;}
	.st11{clip-path:url(#SVGID_24_);fill:#2A92C5;}
	.st12{clip-path:url(#SVGID_26_);fill:#2A92C5;}
	.st13{clip-path:url(#SVGID_28_);fill:#2A92C5;}
	.st14{clip-path:url(#SVGID_30_);fill:#2A92C5;}
	.st15{clip-path:url(#SVGID_32_);fill:#2A92C5;}
	.st16{clip-path:url(#SVGID_34_);fill:#FF9800;}
	.st17{clip-path:url(#SVGID_36_);fill:#2A92C5;}
	.st18{clip-path:url(#SVGID_38_);fill:#2A92C5;}
	.st19{clip-path:url(#SVGID_40_);fill:#2A92C5;}
	.st20{clip-path:url(#SVGID_42_);fill:#2A92C5;}
	.st21{clip-path:url(#SVGID_44_);fill:#2A92C5;}
	.st22{clip-path:url(#SVGID_4_);enable-background:new    ;}
	.st23{clip-path:url(#SVGID_46_);}
	.st24{fill:#333333;}
	.st25{font-family:'ArialNarrow-Bold';}
	.st26{font-size:15px;}
	.st27{clip-path:url(#SVGID_48_);}
	.st28{clip-path:url(#SVGID_50_);}
	.st29{clip-path:url(#SVGID_52_);}
	.st30{clip-path:url(#SVGID_54_);}
	.st31{clip-path:url(#SVGID_2_);fill:none;stroke:#CCCCCC;}
	.st32{clip-path:url(#SVGID_56_);enable-background:new    ;}
	.st33{clip-path:url(#SVGID_58_);}
	.st34{font-family:'ArialNarrow';}
	.st35{font-size:10px;}
	.st36{clip-path:url(#SVGID_60_);}
	.st37{clip-path:url(#SVGID_62_);}
	.st38{clip-path:url(#SVGID_64_);}
	.st39{clip-path:url(#SVGID_66_);}
	.st40{clip-path:url(#SVGID_68_);}
	.st41{clip-path:url(#SVGID_70_);}
	.st42{clip-path:url(#SVGID_72_);}
	.st43{clip-path:url(#SVGID_74_);}
	.st44{clip-path:url(#SVGID_76_);}
	.st45{clip-path:url(#SVGID_78_);}
	.st46{clip-path:url(#SVGID_80_);}
	.st47{clip-path:url(#SVGID_82_);}
	.st48{clip-path:url(#SVGID_84_);}
	.st49{clip-path:url(#SVGID_86_);}
	.st50{font-family:'ArialMT';}
	.st51{font-size:16px;}
	.st52{font-size:12px;}
	.st53{letter-spacing:-1;}
	.st54{fill:#FFFFFF;}
	.st55{font-size:7.9999px;}
	.st56{clip-path:url(#SVGID_2_);fill:none;stroke:#808080;stroke-miterlimit:10;}
	.st57{clip-path:url(#SVGID_2_);fill:none;stroke:#808080;stroke-miterlimit:10;stroke-dasharray:4,3;}
	.st58{clip-path:url(#SVGID_2_);fill:none;stroke:#B3B3B3;stroke-width:0.5;stroke-miterlimit:10;}
	.st59{clip-path:url(#SVGID_88_);fill:#333333;}
	.st60{font-family:'Arial-BoldMT';}
	.st61{font-size:11.0312px;}
	.st62{clip-path:url(#SVGID_90_);fill:#333333;}
	.st63{clip-path:url(#SVGID_92_);fill:#333333;}
	.st64{clip-path:url(#SVGID_94_);fill:#333333;}
	.st65{font-size:7.3541px;}
	.st66{clip-path:url(#SVGID_96_);fill:#333333;}
	.st67{clip-path:url(#SVGID_98_);fill:#333333;}
	.st68{clip-path:url(#SVGID_100_);fill:#333333;}
	.st69{clip-path:url(#SVGID_102_);fill:#333333;}
	.st70{clip-path:url(#SVGID_104_);fill:#333333;}
	.st71{clip-path:url(#SVGID_106_);fill:#333333;}
	.st72{clip-path:url(#SVGID_108_);fill:#333333;}
	.st73{clip-path:url(#SVGID_110_);fill:#333333;}
	.st74{clip-path:url(#SVGID_112_);fill:#333333;}
	.st75{clip-path:url(#SVGID_114_);fill:#333333;}
	.st76{clip-path:url(#SVGID_116_);fill:#333333;}
	.st77{clip-path:url(#SVGID_118_);fill:#333333;}
	.st78{clip-path:url(#SVGID_120_);fill:#333333;}
	.st79{clip-path:url(#SVGID_122_);fill:#333333;}
	.st80{clip-path:url(#SVGID_124_);fill:#333333;}
	.st81{clip-path:url(#SVGID_126_);fill:#333333;}
	.st82{clip-path:url(#SVGID_128_);fill:none;stroke:#666666;stroke-width:0.5;stroke-miterlimit:10;}
	.st83{font-size:8px;}
	.st84{font-family:'Arial-ItalicMT';}
</style>
<g>
	<defs>
		<rect id="SVGID_1_" width="1366" height="800"/>
	</defs>
	<clipPath id="SVGID_2_">
		<use xlink:href="#SVGID_1_"  style="overflow:visible;"/>
	</clipPath>
	<g class="st0">
		<defs>
			<rect id="SVGID_3_" width="1366" height="800"/>
		</defs>
		<clipPath id="SVGID_4_">
			<use xlink:href="#SVGID_3_"  style="overflow:visible;"/>
		</clipPath>
		<g class="st1">
			<g>
				<defs>
					<rect id="SVGID_5_" x="46.6" y="453.7" width="1136" height="120"/>
				</defs>
				<clipPath id="SVGID_6_">
					<use xlink:href="#SVGID_5_"  style="overflow:visible;"/>
				</clipPath>
				<path class="st2" d="M46.6,469.4c9.8,0,9.8,39.4,19.6,39.4c18.7,0,18.7-35,37.3-35c9.5,0,9.5,6,19,6c9.8,0,9.8-5.2,19.6-5.2
					c9.5,0,9.5,35,19,35c9.8,0,9.8,11.5,19.6,11.5c9.8,0,9.8,8.3,19.6,8.3c9.5,0,9.5-32.3,19-32.3c9.8,0,9.8-15.8,19.6-15.8
					c9.5,0,9.5-3.2,19-3.2c19.6,0,19.6,42,39.2,42c8.9,0,8.9-31.8,17.7-31.8c19.3,0,19.3-4.5,38.6-4.5c9.8,0,9.8,15.5,19.6,15.5
					c9.5,0,9.5,20,19,20c9.8,0,9.8,22.3,19.6,22.3c9.8,0,9.8,17.5,19.6,17.5c9.5,0,9.5-35.6,19-35.6c9.8,0,9.8-9.5,19.6-9.5
					c9.5,0,9.5-14.3,19-14.3c9.8,0,9.8-12.1,19.6-12.1c9.8,0,9.8,35.4,19.6,35.4c9.2,0,9.2-16.9,18.4-16.9c9.8,0,9.8-2.4,19.6-2.4
					c9.5,0,9.5-6.2,19-6.2c9.8,0,9.8,51.2,19.6,51.2c9.5,0,9.5,3.5,19,3.5c9.8,0,9.8,5.1,19.6,5.1c9.8,0,9.8-42,19.6-42
					c9.5,0,9.5-14,19-14c9.8,0,9.8-6.5,19.6-6.5c9.5,0,9.5-15.1,19-15.1c9.8,0,9.8,35.9,19.6,35.9s9.8,21.4,19.6,21.4
					c8.9,0,8.9-11.1,17.7-11.1c9.8,0,9.8-15.8,19.6-15.8c9.5,0,9.5,10.4,19,10.4c9.8,0,9.8,43.5,19.6,43.5c9.5,0,9.5-13.9,19-13.9
					c9.8,0,9.8,21.4,19.6,21.4c9.8,0,9.8-28.7,19.6-28.7c9.5,0,9.5-7.5,19-7.5c29.1,0,29.1,19.8,58.2,19.8c9.8,0,9.8,18.4,19.6,18.4
					c18.7,0,18.7-20.5,37.3-20.5c9.5,0,9.5-43.7,19-43.7c9.8,0,9.8,58.1,19.6,58.1c9.5,0,9.5-28.7,19-28.7c9.8,0,9.8,14.7,19.6,14.7
					c9.8,0,9.8,14.3,19.6,14.3c9.5,0,9.5-39.5,19-39.5c9.8,0,9.8-27.1,19.6-27.1c9.5,0,9.5,9,19,9V482c-9.5,0-9.5,1.5-19,1.5
					c-9.8,0-9.8,30.1-19.6,30.1c-9.5,0-9.5,43.5-19,43.5c-9.8,0-9.8-15.7-19.6-15.7c-9.8,0-9.8-19-19.6-19c-9.5,0-9.5,33.8-19,33.8
					c-9.8,0-9.8-65.3-19.6-65.3c-9.5,0-9.5,44-19,44c-18.7,0-18.7,20.3-37.3,20.3c-9.8,0-9.9-23.3-19.7-23.3c-29.1,0-29-9-58.1-9
					c-9.5,0-9.5,9.8-19,9.8c-9.8,0-9.8,28.4-19.6,28.4c-9.8,0-9.8-25.4-19.6-25.4c-9.5,0-9.5,18-19,18c-9.8,0-9.8-49.2-19.6-49.2
					c-9.5,0-9.5-13.2-19-13.2c-9.8,0-9.8,18-19.6,18c-8.9,0-8.9,9.7-17.7,9.7c-9.8,0-9.8-26.5-19.6-26.5s-9.8-35.5-19.6-35.5
					c-9.5,0-9.5,23.5-19,23.5c-9.8,0-9.8,8.3-19.6,8.3c-9.5,0-9.5,17.4-19,17.4c-9.8,0-9.8,41.5-19.6,41.5c-9.8,0-9.8-7.5-19.6-7.5
					c-9.5,0-9.5-0.2-19-0.2c-9.8,0-9.8-55.9-19.6-55.9c-9.5,0-9.5,5.3-19,5.3c-9.8,0-9.8,1-19.6,1c-9.2,0-9.2,17.7-18.4,17.7
					c-9.8,0-9.8-40.6-19.6-40.6c-9.8,0-9.8,20.6-19.6,20.6c-9.5,0-9.5,15.4-19,15.4c-9.8,0-9.8,12.8-19.6,12.8
					c-9.5,0-9.5,34.3-19,34.3c-9.8,0-9.8-19.7-19.6-19.7c-9.8,0-9.8-19.4-19.6-19.4c-9.5,0-9.5-24.7-19-24.7
					c-9.8,0-9.8-16.3-19.6-16.3c-19.3,0-19.3,2.9-38.6,2.9c-8.9,0-8.9,34.2-17.7,34.2c-19.6,0-19.6-41.2-39.2-41.2
					c-9.5,0-9.5,5.1-19,5.1c-9.8,0-9.8,18.6-19.6,18.6c-9.5,0-9.5,32.2-19,32.2c-9.8,0-9.8-11.3-19.6-11.3c-9.8,0-9.8-8.8-19.6-8.8
					c-9.5,0-9.5-38.5-19-38.5c-9.8,0-9.8,2.9-19.6,2.9c-9.5,0-9.5-6.6-19-6.6c-18.7,0-18.7,37.2-37.3,37.2
					c-9.8,0-9.8-43.6-19.6-43.6V469.4z"/>
			</g>
		</g>
		<g class="st1">
			<g>
				<defs>
					<rect id="SVGID_7_" x="46.6" y="232.4" width="1136" height="242.4"/>
				</defs>
				<clipPath id="SVGID_8_">
					<use xlink:href="#SVGID_7_"  style="overflow:visible;"/>
				</clipPath>
				<path class="st3" d="M46.6,367.9c9.8,0,9.8-24.4,19.6-24.4c18.7,0,18.7-7.2,37.3-7.2c9.5,0,9.5,10,19,10c9.8,0,9.8,3.7,19.6,3.7
					c9.5,0,9.5,10.9,19,10.9c9.8,0,9.8-5.2,19.6-5.2c9.8,0,9.8,48.4,19.6,48.4c9.5,0,9.5-57.4,19-57.4c9.8,0,9.8,9.7,19.6,9.7
					c9.5,0,9.5-3.2,19-3.2c19.6,0,19.6-3.2,39.2-3.2c8.9,0,8.9-8.9,17.7-8.9c19.3,0,19.3,4.1,38.6,4.1c9.8,0,9.8,3,19.6,3
					c9.5,0,9.5,10.7,19,10.7c9.8,0,9.8,44.7,19.6,44.7c9.8,0,9.8,57,19.6,57c9.5,0,9.5-76.1,19-76.1c9.8,0,9.8-36.7,19.6-36.7
					c9.5,0,9.5,0.7,19,0.7c9.8,0,9.8,27.9,19.6,27.9c9.8,0,9.8,33.7,19.6,33.7c9.2,0,9.2-82.9,18.4-82.9c9.8,0,9.8,5.8,19.6,5.8
					c9.5,0,9.5,7.5,19,7.5c9.8,0,9.8,9.3,19.6,9.3c9.5,0,9.5,68.9,19,68.9c9.8,0,9.8,43.9,19.6,43.9c9.8,0,9.8-64.8,19.6-64.8
					c9.5,0,9.5-44.3,19-44.3c9.8,0,9.8-3.1,19.6-3.1c9.5,0,9.5,16.6,19,16.6c9.8,0,9.8-10.6,19.6-10.6s9.8-17.9,19.6-17.9
					c8.9,0,8.9-8.8,17.7-8.8c9.8,0,9.8-1.1,19.6-1.1c9.5,0,9.5,8.1,19,8.1c9.8,0,9.8,31.9,19.6,31.9c9.5,0,9.5,60.4,19,60.4
					c9.8,0,9.8,45.8,19.6,45.8c9.8,0,9.8-64.4,19.6-64.4c9.5,0,9.5,15.1,19,15.1c29.1,0,29.1,44.3,58.2,44.3
					c9.8,0,9.8-29.2,19.6-29.2c18.7,0,18.7-3.6,37.3-3.6c9.5,0,9.5-18.9,19-18.9c9.8,0,9.8-79.6,19.6-79.6c9.5,0,9.5-15.3,19-15.3
					c9.8,0,9.8,93,19.6,93c9.8,0,9.8,4.1,19.6,4.1c9.5,0,9.5,5.3,19,5.3c9.8,0,9.8-13,19.6-13c9.5,0,9.5-80.3,19-80.3v-100
					c-9.5,0-9.5,104.7-19,104.7c-9.8,0-9.8,15.8-19.6,15.8c-9.5,0-9.5,10.4-19,10.4c-9.8,0-9.8-9.8-19.6-9.8
					c-9.8,0-9.8-118-19.6-118c-9.5,0-9.5,12.6-19,12.6c-9.8,0-9.8,81.3-19.6,81.3c-9.5,0-9.5,25.8-19,25.8
					c-18.7,0-18.7,4.3-37.3,4.3c-9.8,0-9.8,6-19.6,6c-29.1,0-29.1-4.6-58.2-4.6c-9.5,0-9.5-4.8-19-4.8c-9.8,0-9.8,60-19.6,60
					c-9.8,0-9.8-69.4-19.6-69.4c-9.5,0-9.5-59.1-19-59.1c-9.8,0-9.8-30.4-19.6-30.4c-9.5,0-9.5-12.5-19-12.5
					c-9.8,0-9.8,10.1-19.6,10.1c-8.9,0-8.9,6.6-17.7,6.6c-9.8,0-9.8-0.3-19.6-0.3s-9.8,12.3-19.6,12.3c-9.5,0-9.5,11.9-19,11.9
					c-9.8,0-9.8,2.9-19.6,2.9c-9.5,0-9.5,59.7-19,59.7c-9.8,0-9.8,61.7-19.6,61.7c-9.8,0-9.8-62.8-19.6-62.8
					c-9.5,0-9.5-70.5-19-70.5c-9.8,0-9.8-6.4-19.6-6.4c-9.5,0-9.5-6.6-19-6.6c-9.8,0-9.8-8.4-19.6-8.4c-9.2,0-9.2,86.9-18.4,86.9
					c-9.8,0-9.8-46.3-19.6-46.3c-9.8,0-9.8-0.1-19.6-0.1c-9.5,0-9.5-4.2-19-4.2c-9.8,0-9.8,49-19.6,49c-9.5,0-9.5,72.5-19,72.5
					c-9.8,0-9.8-71.5-19.6-71.5c-9.8,0-9.8-44.7-19.6-44.7c-9.5,0-9.5-12.7-19-12.7c-9.8,0-9.8-5.2-19.6-5.2
					c-19.3,0-19.3-6.3-38.6-6.3c-8.9,0-8.9,15.1-17.7,15.1c-19.6,0-19.6,13.1-39.2,13.1c-9.5,0-9.5,2.4-19,2.4
					c-9.8,0-9.8,2.6-19.6,2.6c-9.5,0-9.5,57-19,57c-9.8,0-9.8-64.5-19.6-64.5c-9.8,0-9.8,3.8-19.6,3.8c-9.5,0-9.5-9.9-19-9.9
					c-9.8,0-9.8-10.2-19.6-10.2c-9.5,0-9.5-10-19-10c-18.7,0-18.7,13.4-37.3,13.4c-9.8,0-9.8,14.7-19.6,14.7V367.9z"/>
			</g>
		</g>
		<g class="st1">
			<g>
				<defs>
					<rect id="SVGID_9_" x="46.6" y="526.6" width="1136" height="140.2"/>
				</defs>
				<clipPath id="SVGID_10_">
					<use xlink:href="#SVGID_9_"  style="overflow:visible;"/>
				</clipPath>
				<path class="st4" d="M46.6,553.7c9.8,0,9.8-7.2,19.6-7.2c18.7,0,18.7,3.4,37.3,3.4c9.5,0,9.5-1.2,19-1.2c9.8,0,9.8-1.3,19.6-1.3
					c9.5,0,9.5-8.9,19-8.9c9.8,0,9.8,32.6,19.6,32.6c9.8,0,9.8-2.4,19.6-2.4c9.5,0,9.5-39.8,19-39.8c9.8,0,9.8,15.3,19.6,15.3
					c9.5,0,9.5-9.4,19-9.4c19.6,0,19.6,26.2,39.2,26.2c8.9,0,8.9-6.5,17.7-6.5c19.3,0,19.3-1.9,38.6-1.9c9.8,0,9.8,7.9,19.6,7.9
					c9.5,0,9.5-4.5,19-4.5c9.8,0,9.8,35.8,19.6,35.8c9.8,0,9.8,4.2,19.6,4.2c9.5,0,9.5-30.4,19-30.4c9.8,0,9.8-4.1,19.6-4.1
					c9.5,0,9.5-1.5,19-1.5c9.8,0,9.8,23,19.6,23c9.8,0,9.8,17.7,19.6,17.7c9.2,0,9.2-23.4,18.4-23.4c9.8,0,9.8-10.6,19.6-10.6
					c9.5,0,9.5-3.2,19-3.2c9.8,0,9.8,25.6,19.6,25.6c9.5,0,9.5,28,19,28c9.8,0,9.8-8.7,19.6-8.7c9.8,0,9.8-30,19.6-30
					c9.5,0,9.5-19.3,19-19.3c9.8,0,9.8,21,19.6,21c9.5,0,9.5,23,19,23c9.8,0,9.8,19.5,19.6,19.5s9.8-21.4,19.6-21.4
					c8.9,0,8.9-7.2,17.7-7.2c9.8,0,9.8,6.6,19.6,6.6c9.5,0,9.5,7.9,19,7.9c9.8,0,9.8-38.3,19.6-38.3c9.5,0,9.5,61.4,19,61.4
					c9.8,0,9.8-8.9,19.6-8.9c9.8,0,9.8-27.9,19.6-27.9c9.5,0,9.5,19.9,19,19.9c29.1,0,29.1,52,58.2,52c9.8,0,9.8-11.2,19.6-11.2
					c18.7,0,18.7-25.3,37.3-25.3c9.5,0,9.5-21.9,19-21.9c9.8,0,9.8-0.2,19.6-0.2c9.5,0,9.5,26.2,19,26.2c9.8,0,9.8-5.8,19.6-5.8
					c9.8,0,9.8-15.4,19.6-15.4c9.5,0,9.5,8.6,19,8.6c9.8,0,9.8-8.2,19.6-8.2c9.5,0,9.5,14,19,14v-5.4c-9.5,0-9.5-13-19-13
					c-9.8,0-9.8,9.3-19.6,9.3c-9.5,0-9.5-9.7-19-9.7c-9.8,0-9.8,14.7-19.6,14.7c-9.8,0-9.8,7.7-19.6,7.7c-9.5,0-9.5-28.3-19-28.3
					c-9.8,0-9.8-2.8-19.6-2.8c-9.5,0-9.5,30.1-19,30.1c-18.7,0-18.7,16-37.3,16c-9.8,0-9.8,12.4-19.6,12.4
					c-29.1,0-29.1-46.7-58.2-46.7c-9.5,0-9.5-20.7-19-20.7c-9.8,0-9.8,27.1-19.6,27.1c-9.8,0-9.8,10.4-19.6,10.4
					c-9.5,0-9.5-58.6-19-58.6c-9.8,0-9.8,33.9-19.6,33.9c-9.5,0-9.5-10.7-19-10.7c-9.8,0-9.8-6.8-19.6-6.8c-8.9,0-8.9,6.5-17.7,6.5
					c-9.8,0-9.8,22.4-19.6,22.4s-9.8-18.2-19.6-18.2c-9.5,0-9.5-21.4-19-21.4c-9.8,0-9.8-20.6-19.6-20.6c-9.5,0-9.5,20.8-19,20.8
					c-9.8,0-9.8,29-19.6,29c-9.8,0-9.8,7.9-19.6,7.9c-9.5,0-9.5-26.7-19-26.7c-9.8,0-9.8-27.1-19.6-27.1c-9.5,0-9.5,2.1-19,2.1
					c-9.8,0-9.8,10.3-19.6,10.3c-9.2,0-9.2,22.2-18.4,22.2c-9.8,0-9.8-16-19.6-16c-9.8,0-9.8-21-19.6-21c-9.5,0-9.5,1.8-19,1.8
					c-9.8,0-9.8,4.8-19.6,4.8c-9.5,0-9.5,29.7-19,29.7c-9.8,0-9.8-4.9-19.6-4.9c-9.8,0-9.8-34.5-19.6-34.5c-9.5,0-9.5,3.5-19,3.5
					c-9.8,0-9.8-8.7-19.6-8.7c-19.3,0-19.3,1.6-38.6,1.6c-8.9,0-8.9,5.4-17.7,5.4c-19.6,0-19.6-24.7-39.2-24.7
					c-9.5,0-9.5,10.7-19,10.7c-9.8,0-9.8-14.8-19.6-14.8c-9.5,0-9.5,40.2-19,40.2c-9.8,0-9.8,1.8-19.6,1.8
					c-9.8,0-9.8-33.3-19.6-33.3c-9.5,0-9.5,9.9-19,9.9c-9.8,0-9.8,0.9-19.6,0.9c-9.5,0-9.5,0.3-19,0.3c-18.7,0-18.7-3.9-37.3-3.9
					c-9.8,0-9.8,7.1-19.6,7.1V553.7z"/>
			</g>
		</g>
		<g class="st1">
			<g>
				<defs>
					<rect id="SVGID_11_" x="46.6" y="498.9" width="1136" height="158.2"/>
				</defs>
				<clipPath id="SVGID_12_">
					<use xlink:href="#SVGID_11_"  style="overflow:visible;"/>
				</clipPath>
				<path class="st5" d="M46.6,541.2c9.8,0,9.8-0.3,19.6-0.3c18.7,0,18.7-8.4,37.3-8.4c9.5,0,9.5-8,19-8c9.8,0,9.8,10.4,19.6,10.4
					c9.5,0,9.5-18.8,19-18.8c9.8,0,9.8,29.6,19.6,29.6c9.8,0,9.8,2,19.6,2c9.5,0,9.5-44.1,19-44.1c9.8,0,9.8,14.8,19.6,14.8
					c9.5,0,9.5,4.3,19,4.3c19.6,0,19.6,31.1,39.2,31.1c8.9,0,8.9-13.2,17.7-13.2c19.3,0,19.3,0.3,38.6,0.3c9.8,0,9.8-1.4,19.6-1.4
					c9.5,0,9.5-1.8,19-1.8c9.8,0,9.8,37.5,19.6,37.5c9.8,0,9.8-1.7,19.6-1.7c9.5,0,9.5-29.8,19-29.8c9.8,0,9.8-3.3,19.6-3.3
					c9.5,0,9.5-1.1,19-1.1c9.8,0,9.8,27.4,19.6,27.4c9.8,0,9.8,25.4,19.6,25.4c9.2,0,9.2-30.5,18.4-30.5c9.8,0,9.8-2,19.6-2
					c9.5,0,9.5-8.1,19-8.1c9.8,0,9.8,17.3,19.6,17.3c9.5,0,9.5,36.5,19,36.5c9.8,0,9.8-13.2,19.6-13.2c9.8,0,9.8-35.7,19.6-35.7
					c9.5,0,9.5-2.8,19-2.8c9.8,0,9.8,14,19.6,14c9.5,0,9.5,9,19,9c9.8,0,9.8,37.2,19.6,37.2s9.8-22.4,19.6-22.4
					c8.9,0,8.9-6.5,17.7-6.5c9.8,0,9.8,6.8,19.6,6.8c9.5,0,9.5,4.3,19,4.3c9.8,0,9.8-24.2,19.6-24.2c9.5,0,9.5,29.5,19,29.5
					c9.8,0,9.8,9.1,19.6,9.1c9.8,0,9.8-32.5,19.6-32.5c9.5,0,9.5,26.8,19,26.8c29.1,0,29.1,52.3,58.2,52.3c9.8,0,9.8-12.4,19.6-12.4
					c18.7,0,18.7-12.7,37.3-12.7c9.5,0,9.5-14.6,19-14.6c9.8,0,9.8-31.1,19.6-31.1c9.5,0,9.5,32,19,32c9.8,0,9.8-3,19.6-3
					c9.8,0,9.8-20.8,19.6-20.8c9.5,0,9.5,11.4,19,11.4c9.8,0,9.8-12.2,19.6-12.2c9.5,0,9.5,19.3,19,19.3v-7.5
					c-9.5,0-9.5-18.2-19-18.2c-9.8,0-9.8,13.4-19.6,13.4c-9.5,0-9.5-12-19-12c-9.8,0-9.8,20.5-19.6,20.5c-9.8,0-9.8,4.6-19.6,4.6
					c-9.5,0-9.5-33.6-19-33.6c-9.8,0-9.8,30.1-19.6,30.1c-9.5,0-9.5,21.9-19,21.9c-18.7,0-18.7,3.3-37.3,3.3
					c-9.8,0-9.8,13.4-19.6,13.4c-29.1,0-29.1-48.3-58.2-48.3c-9.5,0-9.5-27.7-19-27.7c-9.8,0-9.8,32-19.6,32
					c-9.8,0-9.8-7.7-19.6-7.7c-9.5,0-9.5-25.2-19-25.2c-9.8,0-9.8,18.6-19.6,18.6c-9.5,0-9.5-6.6-19-6.6c-9.8,0-9.8-8.8-19.6-8.8
					c-8.9,0-8.9,6.9-17.7,6.9c-9.8,0-9.8,23.5-19.6,23.5s-9.8-38.3-19.6-38.3c-9.5,0-9.5-6.4-19-6.4c-9.8,0-9.8-13.2-19.6-13.2
					c-9.5,0-9.5,4.6-19,4.6c-9.8,0-9.8,34.7-19.6,34.7c-9.8,0-9.8,12.9-19.6,12.9c-9.5,0-9.5-34.6-19-34.6c-9.8,0-9.8-19-19.6-19
					c-9.5,0-9.5,7-19,7c-9.8,0-9.8-1.2-19.6-1.2c-9.2,0-9.2,31-18.4,31c-9.8,0-9.8-23.9-19.6-23.9c-9.8,0-9.8-26.1-19.6-26.1
					c-9.5,0-9.5,2.4-19,2.4c-9.8,0-9.8,4.6-19.6,4.6c-9.5,0-9.5,28.4-19,28.4c-9.8,0-9.8,2.5-19.6,2.5c-9.8,0-9.8-36.6-19.6-36.6
					c-9.5,0-9.5,0.6-19,0.6c-9.8,0-9.8,0.9-19.6,0.9c-19.3,0-19.3-3.1-38.6-3.1c-8.9,0-8.9,14.3-17.7,14.3
					c-19.6,0-19.6-32.4-39.2-32.4c-9.5,0-9.5-1.9-19-1.9c-9.8,0-9.8-13.6-19.6-13.6c-9.5,0-9.5,44.8-19,44.8
					c-9.8,0-9.8-3.2-19.6-3.2c-9.8,0-9.8-29.2-19.6-29.2c-9.5,0-9.5,20.1-19,20.1c-9.8,0-9.8-11.3-19.6-11.3c-9.5,0-9.5,6.2-19,6.2
					c-18.7,0-18.7,7.1-37.3,7.1c-9.8,0-9.8,0.4-19.6,0.4V541.2z"/>
			</g>
		</g>
		<g class="st1">
			<g>
				<defs>
					<rect id="SVGID_13_" x="46.6" y="538.1" width="1136" height="160.9"/>
				</defs>
				<clipPath id="SVGID_14_">
					<use xlink:href="#SVGID_13_"  style="overflow:visible;"/>
				</clipPath>
				<path class="st6" d="M46.6,577c9.8,0,9.8,2.9,19.6,2.9c18.7,0,18.7-8.7,37.3-8.7c9.5,0,9.5-15.2,19-15.2c9.8,0,9.8-5.4,19.6-5.4
					c9.5,0,9.5-3.3,19-3.3c9.8,0,9.8,30.8,19.6,30.8c9.8,0,9.8-6.3,19.6-6.3c9.5,0,9.5-32,19-32c9.8,0,9.8,12.3,19.6,12.3
					c9.5,0,9.5,2.7,19,2.7c19.6,0,19.6,40.4,39.2,40.4c8.9,0,8.9-15.6,17.7-15.6c19.3,0,19.3-8.9,38.6-8.9c9.8,0,9.8,2.1,19.6,2.1
					c9.5,0,9.5-9.9,19-9.9c9.8,0,9.8,37.8,19.6,37.8c9.8,0,9.8,6,19.6,6c9.5,0,9.5-38.2,19-38.2c9.8,0,9.8,4.6,19.6,4.6
					c9.5,0,9.5-5.1,19-5.1c9.8,0,9.8,36.6,19.6,36.6c9.8,0,9.8,28.1,19.6,28.1c9.2,0,9.2-34.5,18.4-34.5c9.8,0,9.8-1,19.6-1
					c9.5,0,9.5-9.8,19-9.8c9.8,0,9.8,4.7,19.6,4.7c9.5,0,9.5,39.7,19,39.7c9.8,0,9.8-11.9,19.6-11.9c9.8,0,9.8-38.6,19.6-38.6
					c9.5,0,9.5,4.9,19,4.9c9.8,0,9.8,8.7,19.6,8.7c9.5,0,9.5,13.2,19,13.2c9.8,0,9.8,31.6,19.6,31.6s9.8,5.7,19.6,5.7
					c8.9,0,8.9-7.5,17.7-7.5c9.8,0,9.8-7.7,19.6-7.7c9.5,0,9.5,2.5,19,2.5c9.8,0,9.8-54.6,19.6-54.6c9.5,0,9.5,56.8,19,56.8
					c9.8,0,9.8,3.1,19.6,3.1c9.8,0,9.8-31.2,19.6-31.2c9.5,0,9.5,19.9,19,19.9c29.1,0,29.1,64.4,58.2,64.4c9.8,0,9.8,7.7,19.6,7.7
					c18.7,0,18.7-63.8,37.3-63.8c9.5,0,9.5,14.8,19,14.8c9.8,0,9.8-25.9,19.6-25.9c9.5,0,9.5,14.2,19,14.2c9.8,0,9.8,8.3,19.6,8.3
					c9.8,0,9.8-18.3,19.6-18.3c9.5,0,9.5,1.9,19,1.9c9.8,0,9.8-1.7,19.6-1.7c9.5,0,9.5,21.6,19,21.6v-3.4c-9.5,0-9.5-20.9-19-20.9
					c-9.8,0-9.8,2.4-19.6,2.4c-9.5,0-9.5-2.3-19-2.3c-9.8,0-9.8,16.9-19.6,16.9c-9.8,0-9.8-6.6-19.6-6.6c-9.5,0-9.5-14.9-19-14.9
					c-9.8,0-9.8,25.5-19.6,25.5c-9.5,0-9.5-11.5-19-11.5c-18.7,0-18.7,61.1-37.3,61.1c-9.8,0-9.8-8.3-19.6-8.3
					c-29.1,0-29.1-62.9-58.2-62.9c-9.5,0-9.5-20.1-19-20.1c-9.8,0-9.8,30.2-19.6,30.2c-9.8,0-9.8-1.9-19.6-1.9
					c-9.5,0-9.5-54.9-19-54.9c-9.8,0-9.8,52-19.6,52c-9.5,0-9.5-3.1-19-3.1c-9.8,0-9.8,8.1-19.6,8.1c-8.9,0-8.9,7.4-17.7,7.4
					c-9.8,0-9.8-6.5-19.6-6.5s-9.8-31.5-19.6-31.5c-9.5,0-9.5-12.4-19-12.4c-9.8,0-9.8-8.3-19.6-8.3c-9.5,0-9.5-4-19-4
					c-9.8,0-9.8,38.1-19.6,38.1c-9.8,0-9.8,10.8-19.6,10.8c-9.5,0-9.5-38.3-19-38.3c-9.8,0-9.8-5.2-19.6-5.2c-9.5,0-9.5,9.3-19,9.3
					c-9.8,0-9.8,1-19.6,1c-9.2,0-9.2,34.6-18.4,34.6c-9.8,0-9.8-28.5-19.6-28.5c-9.8,0-9.8-36-19.6-36c-9.5,0-9.5,5.6-19,5.6
					c-9.8,0-9.8-4.2-19.6-4.2c-9.5,0-9.5,38.1-19,38.1c-9.8,0-9.8-7-19.6-7c-9.8,0-9.8-36.8-19.6-36.8c-9.5,0-9.5,9.4-19,9.4
					c-9.8,0-9.8-2.3-19.6-2.3c-19.3,0-19.3,9-38.6,9c-8.9,0-8.9,15.6-17.7,15.6c-19.6,0-19.6-41.4-39.2-41.4c-9.5,0-9.5-1.7-19-1.7
					c-9.8,0-9.8-11.9-19.6-11.9c-9.5,0-9.5,32.2-19,32.2c-9.8,0-9.8,6.4-19.6,6.4c-9.8,0-9.8-32-19.6-32c-9.5,0-9.5,4.3-19,4.3
					c-9.8,0-9.8,5.1-19.6,5.1c-9.5,0-9.5,15-19,15c-18.7,0-18.7,8.8-37.3,8.8c-9.8,0-9.8-3-19.6-3V577z"/>
			</g>
		</g>
		<g class="st1">
			<g>
				<defs>
					<rect id="SVGID_15_" x="46.6" y="432.1" width="1136" height="161.9"/>
				</defs>
				<clipPath id="SVGID_16_">
					<use xlink:href="#SVGID_15_"  style="overflow:visible;"/>
				</clipPath>
				<path class="st7" d="M46.6,522.3c9.8,0,9.8-39.9,19.6-39.9c18.7,0,18.7,5.6,37.3,5.6c9.5,0,9.5-23,19-23
					c9.8,0,9.8,32.5,19.6,32.5c9.5,0,9.5,3.1,19,3.1c9.8,0,9.8-3.7,19.6-3.7c9.8,0,9.8,13.5,19.6,13.5c9.5,0,9.5-21.9,19-21.9
					c9.8,0,9.8,14,19.6,14c9.5,0,9.5,10.1,19,10.1c19.6,0,19.6,20.1,39.2,20.1c8.9,0,8.9-60.9,17.7-60.9c19.3,0,19.3-2.9,38.6-2.9
					c9.8,0,9.8,43.9,19.6,43.9c9.5,0,9.5-12.8,19-12.8c9.8,0,9.8-0.3,19.6-0.3c9.8,0,9.8,37.9,19.6,37.9c9.5,0,9.5-23,19-23
					c9.8,0,9.8-12.8,19.6-12.8c9.5,0,9.5,10.9,19,10.9c9.8,0,9.8,7.5,19.6,7.5c9.8,0,9.8,33,19.6,33c9.2,0,9.2-101.4,18.4-101.4
					c9.8,0,9.8,66.9,19.6,66.9c9.5,0,9.5-6.9,19-6.9c9.8,0,9.8,15.1,19.6,15.1c9.5,0,9.5-3.5,19-3.5c9.8,0,9.8,10.7,19.6,10.7
					c9.8,0,9.8-8.3,19.6-8.3c9.5,0,9.5-38.7,19-38.7c9.8,0,9.8,38.3,19.6,38.3c9.5,0,9.5-5,19-5c9.8,0,9.8,34.5,19.6,34.5
					s9.8-1.7,19.6-1.7c8.9,0,8.9-10,17.7-10c9.8,0,9.8-53.6,19.6-53.6c9.5,0,9.5,63,19,63c9.8,0,9.8-0.6,19.6-0.6
					c9.5,0,9.5-18,19-18c9.8,0,9.8-2.8,19.6-2.8c9.8,0,9.8-0.2,19.6-0.2c9.5,0,9.5,18.1,19,18.1c29.1,0,29.1,44.7,58.2,44.7
					c9.8,0,9.8-3.9,19.6-3.9c18.7,0,18.7-18.1,37.3-18.1c9.5,0,9.5-9.9,19-9.9c9.8,0,9.8-34.8,19.6-34.8c9.5,0,9.5-6.5,19-6.5
					c9.8,0,9.8,19,19.6,19c9.8,0,9.8,15.7,19.6,15.7c9.5,0,9.5-11.3,19-11.3c9.8,0,9.8-8.1,19.6-8.1c9.5,0,9.5,19.9,19,19.9v-20.8
					c-9.5,0-9.5-14.6-19-14.6c-9.8,0-9.8,9.6-19.6,9.6c-9.5,0-9.5,14.3-19,14.3c-9.8,0-9.8-19.3-19.6-19.3
					c-9.8,0-9.8-22.3-19.6-22.3c-9.5,0-9.5,12.4-19,12.4c-9.8,0-9.8,32.3-19.6,32.3c-9.5,0-9.5,7.4-19,7.4
					c-18.7,0-18.7,20.5-37.3,20.5c-9.8,0-9.8,1.3-19.6,1.3c-29.1,0-29.1-39.5-58.2-39.5c-9.5,0-9.5-16.4-19-16.4
					c-9.8,0-9.8-2.9-19.6-2.9c-9.8,0-9.8-0.2-19.6-0.2c-9.5,0-9.5,23.8-19,23.8c-9.8,0-9.8-2.3-19.6-2.3c-9.5,0-9.5-69.3-19-69.3
					c-9.8,0-9.8,57.9-19.6,57.9c-8.9,0-8.9,11.1-17.7,11.1c-9.8,0-9.8,1.2-19.6,1.2s-9.8-38.1-19.6-38.1c-9.5,0-9.5,10.5-19,10.5
					c-9.8,0-9.8-37.7-19.6-37.7c-9.5,0-9.5,42.4-19,42.4c-9.8,0-9.8,4.1-19.6,4.1c-9.8,0-9.8-13.8-19.6-13.8c-9.5,0-9.5,9.6-19,9.6
					c-9.8,0-9.8-17.6-19.6-17.6c-9.5,0-9.5,6.2-19,6.2c-9.8,0-9.8-73.5-19.6-73.5c-9.2,0-9.2,108.7-18.4,108.7
					c-9.8,0-9.8-34.9-19.6-34.9c-9.8,0-9.8-4.4-19.6-4.4c-9.5,0-9.5-10.1-19-10.1c-9.8,0-9.8,15-19.6,15c-9.5,0-9.5,19.6-19,19.6
					c-9.8,0-9.8-40.7-19.6-40.7c-9.8,0-9.8,5.7-19.6,5.7c-9.5,0-9.5,10.2-19,10.2c-9.8,0-9.8-45.6-19.6-45.6
					c-19.3,0-19.3,0.3-38.6,0.3c-8.9,0-8.9,66-17.7,66c-19.6,0-19.6-18.6-39.2-18.6c-9.5,0-9.5-9.4-19-9.4
					c-9.8,0-9.8-12.9-19.6-12.9c-9.5,0-9.5,20.5-19,20.5c-9.8,0-9.8-16.6-19.6-16.6c-9.8,0-9.8,7.8-19.6,7.8c-9.5,0-9.5-4.9-19-4.9
					c-9.8,0-9.8-35.9-19.6-35.9c-9.5,0-9.5,23.5-19,23.5c-18.7,0-18.7-4.7-37.3-4.7c-9.8,0-9.8,41-19.6,41V522.3z"/>
			</g>
		</g>
		<g class="st1">
			<g>
				<defs>
					<rect id="SVGID_17_" x="46.6" y="217.7" width="1136" height="226.7"/>
				</defs>
				<clipPath id="SVGID_18_">
					<use xlink:href="#SVGID_17_"  style="overflow:visible;"/>
				</clipPath>
				<path class="st8" d="M46.6,416.9c9.8,0,9.8-24.4,19.6-24.4c18.7,0,18.7,25.8,37.3,25.8c9.5,0,9.5-4.7,19-4.7
					c9.8,0,9.8,1.2,19.6,1.2c9.5,0,9.5,5.5,19,5.5c9.8,0,9.8-22.8,19.6-22.8c9.8,0,9.8,47,19.6,47c9.5,0,9.5-32.8,19-32.8
					c9.8,0,9.8-1.3,19.6-1.3c9.5,0,9.5,1.1,19,1.1c19.6,0,19.6,25,39.2,25c8.9,0,8.9-18.6,17.7-18.6c19.3,0,19.3-2.1,38.6-2.1
					c9.8,0,9.8,1.2,19.6,1.2c9.5,0,9.5,7.3,19,7.3c9.8,0,9.8-84.7,19.6-84.7c9.8,0,9.8,16.4,19.6,16.4c9.5,0,9.5-17.4,19-17.4
					c9.8,0,9.8,51,19.6,51c9.5,0,9.5-3.9,19-3.9c9.8,0,9.8,38.7,19.6,38.7c9.8,0,9.8-84.3,19.6-84.3c9.2,0,9.2,39.8,18.4,39.8
					c9.8,0,9.8,6.2,19.6,6.2c9.5,0,9.5,0.6,19,0.6c9.8,0,9.8,17.7,19.6,17.7c9.5,0,9.5-59.2,19-59.2c9.8,0,9.8,62.8,19.6,62.8
					c9.8,0,9.8-61.7,19.6-61.7c9.5,0,9.5,51.2,19,51.2c9.8,0,9.8,0.5,19.6,0.5c9.5,0,9.5,13.8,19,13.8c9.8,0,9.8,28.3,19.6,28.3
					s9.8-25.3,19.6-25.3c8.9,0,8.9-10.8,17.7-10.8c9.8,0,9.8-2.3,19.6-2.3c9.5,0,9.5,7,19,7c9.8,0,9.8,24.7,19.6,24.7
					c9.5,0,9.5-88.3,19-88.3c9.8,0,9.8,6.4,19.6,6.4c9.8,0,9.8,3,19.6,3c9.5,0,9.5,4.8,19,4.8c29.1,0,29.1,4.6,58.2,4.6
					c9.8,0,9.8-6,19.6-6c18.7,0,18.7-4.3,37.3-4.3c9.5,0,9.5-25.8,19-25.8c9.8,0,9.8,87,19.6,87c9.5,0,9.5-7.9,19-7.9
					c9.8,0,9.8-55,19.6-55c9.8,0,9.8,9.8,19.6,9.8c9.5,0,9.5-10.4,19-10.4c9.8,0,9.8-15.8,19.6-15.8c9.5,0,9.5,91.8,19,91.8V334
					c-9.5,0-9.5-82-19-82c-9.8,0-9.8,1.4-19.6,1.4c-9.5,0-9.5,6.2-19,6.2c-9.8,0-9.8-22.4-19.6-22.4c-9.8,0-9.8,87.7-19.6,87.7
					c-9.5,0-9.5,15.3-19,15.3c-9.8,0-9.8-117.4-19.6-117.4c-9.5,0-9.5,21.2-19,21.2c-18.7,0-18.7-26.3-37.3-26.3
					c-9.8,0-9.8,39.6-19.6,39.6c-29.1,0-29.1,15.9-58.2,15.9c-9.5,0-9.5,5.2-19,5.2c-9.8,0-9.8-18.5-19.6-18.5
					c-9.8,0-9.8-1.7-19.6-1.7c-9.5,0-9.5,111.9-19,111.9c-9.8,0-9.8-31.9-19.6-31.9c-9.5,0-9.5-8.1-19-8.1c-9.8,0-9.8,1.1-19.6,1.1
					c-8.9,0-8.9,8.8-17.7,8.8c-9.8,0-9.8,17.9-19.6,17.9s-9.8,10.6-19.6,10.6c-9.5,0-9.5-16.6-19-16.6c-9.8,0-9.8,3-19.6,3
					c-9.5,0-9.5-59.3-19-59.3c-9.8,0-9.8,53.4-19.6,53.4c-9.8,0-9.8-82-19.6-82c-9.5,0-9.5,84.3-19,84.3c-9.8,0-9.8-9.3-19.6-9.3
					c-9.5,0-9.5-7.5-19-7.5c-9.8,0-9.8-5.8-19.6-5.8c-9.2,0-9.2-67.1-18.4-67.1c-9.8,0-9.8,116.4-19.6,116.4
					c-9.8,0-9.8-27.9-19.6-27.9c-9.5,0-9.5-0.7-19-0.7c-9.8,0-9.8-59.9-19.6-59.9c-9.5,0-9.5,3.9-19,3.9c-9.8,0-9.8-17.6-19.6-17.6
					c-9.8,0-9.8,117.5-19.6,117.5c-9.5,0-9.5-6.4-19-6.4c-9.8,0-9.8-2.9-19.6-2.9c-19.3,0-19.3,5.2-38.6,5.2
					c-8.9,0-8.9,7.3-17.7,7.3c-19.6,0-19.6-4.9-39.2-4.9c-9.5,0-9.5,0.1-19,0.1c-9.8,0-9.8-5.2-19.6-5.2c-9.5,0-9.5,19.3-19,19.3
					c-9.8,0-9.8-48.4-19.6-48.4c-9.8,0-9.8,36.8-19.6,36.8c-9.5,0-9.5-8.9-19-8.9c-9.8,0-9.8-1.8-19.6-1.8c-9.5,0-9.5-1.3-19-1.3
					c-18.7,0-18.7-37.1-37.3-37.1c-9.8,0-9.8,24.4-19.6,24.4V416.9z"/>
			</g>
		</g>
		<g class="st1">
			<g>
				<defs>
					<rect id="SVGID_19_" x="46.6" y="523.9" width="1136" height="175.2"/>
				</defs>
				<clipPath id="SVGID_20_">
					<use xlink:href="#SVGID_19_"  style="overflow:visible;"/>
				</clipPath>
				<path class="st9" d="M46.6,580.2c9.8,0,9.8-12.7,19.6-12.7c18.7,0,18.7-12.8,37.3-12.8c9.5,0,9.5-10.3,19-10.3
					c9.8,0,9.8-5.2,19.6-5.2c9.5,0,9.5-10.9,19-10.9c9.8,0,9.8,28.8,19.6,28.8c9.8,0,9.8,4.5,19.6,4.5c9.5,0,9.5-28.8,19-28.8
					c9.8,0,9.8,15.7,19.6,15.7c9.5,0,9.5,1.7,19,1.7c19.6,0,19.6,41.4,39.2,41.4c8.9,0,8.9-7.9,17.7-7.9c19.3,0,19.3-8.8,38.6-8.8
					c9.8,0,9.8-5.6,19.6-5.6c9.5,0,9.5-36.8,19-36.8c9.8,0,9.8,54.1,19.6,54.1c9.8,0,9.8,13.3,19.6,13.3c9.5,0,9.5-41.9,19-41.9
					c9.8,0,9.8,7.7,19.6,7.7c9.5,0,9.5-1.5,19-1.5c9.8,0,9.8,48.1,19.6,48.1c9.8,0,9.8,24.8,19.6,24.8c9.2,0,9.2-30.5,18.4-30.5
					c9.8,0,9.8-17.8,19.6-17.8c9.5,0,9.5-4.9,19-4.9c9.8,0,9.8-4.2,19.6-4.2c9.5,0,9.5,31.8,19,31.8c9.8,0,9.8-13.1,19.6-13.1
					c9.8,0,9.8-31.9,19.6-31.9c9.5,0,9.5,12,19,12c9.8,0,9.8,25.3,19.6,25.3c9.5,0,9.5,19.2,19,19.2c9.8,0,9.8,30.6,19.6,30.6
					s9.8-3.8,19.6-3.8c8.9,0,8.9-7.6,17.7-7.6c9.8,0,9.8-7.8,19.6-7.8c9.5,0,9.5-5.6,19-5.6c9.8,0,9.8-60.1,19.6-60.1
					c9.5,0,9.5,44,19,44c9.8,0,9.8,15.8,19.6,15.8c9.8,0,9.8-25.1,19.6-25.1c9.5,0,9.5,15.8,19,15.8c29.1,0,29.1,80,58.2,80
					c9.8,0,9.8-4.5,19.6-4.5c18.7,0,18.7-66,37.3-66c9.5,0,9.5,25.5,19,25.5c9.8,0,9.8-34.5,19.6-34.5c9.5,0,9.5,10.1,19,10.1
					c9.8,0,9.8,21.8,19.6,21.8c9.8,0,9.8-20,19.6-20c9.5,0,9.5,1.9,19,1.9c9.8,0,9.8-1.3,19.6-1.3c9.5,0,9.5,21.7,19,21.7v-2.1
					c-9.5,0-9.5-21.6-19-21.6c-9.8,0-9.8,1.7-19.6,1.7c-9.5,0-9.5-1.9-19-1.9c-9.8,0-9.8,18.3-19.6,18.3c-9.8,0-9.8-22.3-19.6-22.3
					c-9.5,0-9.5-9.3-19-9.3c-9.8,0-9.8,35.1-19.6,35.1c-9.5,0-9.5-26-19-26c-18.7,0-18.7,66.2-37.3,66.2c-9.8,0-9.8,7.3-19.6,7.3
					c-29.1,0-29.1-82.7-58.2-82.7c-9.5,0-9.5-15.6-19-15.6c-9.8,0-9.8,23.6-19.6,23.6c-9.8,0-9.8-15.6-19.6-15.6
					c-9.5,0-9.5-42.9-19-42.9c-9.8,0-9.8,60.1-19.6,60.1c-9.5,0-9.5,6.1-19,6.1c-9.8,0-9.8,7.7-19.6,7.7c-8.9,0-8.9,7.5-17.7,7.5
					c-9.8,0-9.8,6.3-19.6,6.3s-9.8-33.4-19.6-33.4c-9.5,0-9.5-19-19-19c-9.8,0-9.8-25.2-19.6-25.2c-9.5,0-9.5-12.4-19-12.4
					c-9.8,0-9.8,30.4-19.6,30.4c-9.8,0-9.8,13.2-19.6,13.2c-9.5,0-9.5-31-19-31c-9.8,0-9.8,4.9-19.6,4.9c-9.5,0-9.5,4.9-19,4.9
					c-9.8,0-9.8,18.5-19.6,18.5c-9.2,0-9.2,30.4-18.4,30.4c-9.8,0-9.8-22.4-19.6-22.4c-9.8,0-9.8-50.7-19.6-50.7
					c-9.5,0-9.5,1.5-19,1.5c-9.8,0-9.8-7.4-19.6-7.4c-9.5,0-9.5,42-19,42c-9.8,0-9.8-15-19.6-15c-9.8,0-9.8-54.1-19.6-54.1
					c-9.5,0-9.5,38-19,38c-9.8,0-9.8,6.1-19.6,6.1c-19.3,0-19.3,8.9-38.6,8.9c-8.9,0-8.9,7.7-17.7,7.7c-19.6,0-19.6-42.2-39.2-42.2
					c-9.5,0-9.5-1.1-19-1.1c-9.8,0-9.8-15.3-19.6-15.3c-9.5,0-9.5,28.5-19,28.5c-9.8,0-9.8-5.7-19.6-5.7c-9.8,0-9.8-29.4-19.6-29.4
					c-9.5,0-9.5,12.6-19,12.6c-9.8,0-9.8,5.2-19.6,5.2c-9.5,0-9.5,9.8-19,9.8c-18.7,0-18.7,12.9-37.3,12.9
					C56.4,564.5,56.4,580.2,46.6,580.2"/>
			</g>
		</g>
		<g class="st1">
			<g>
				<defs>
					<rect id="SVGID_21_" x="46.6" y="470.3" width="1136" height="185.1"/>
				</defs>
				<clipPath id="SVGID_22_">
					<use xlink:href="#SVGID_21_"  style="overflow:visible;"/>
				</clipPath>
				<path class="st10" d="M46.6,510.1c9.8,0,9.8,21.7,19.6,21.7c18.7,0,18.7-7.1,37.3-7.1c9.5,0,9.5-12.9,19-12.9
					c9.8,0,9.8-5,19.6-5c9.5,0,9.5-15.8,19-15.8c9.8,0,9.8,40.1,19.6,40.1c9.8,0,9.8-10.4,19.6-10.4c9.5,0,9.5-41.4,19-41.4
					c9.8,0,9.8,12.9,19.6,12.9c9.5,0,9.5,9.4,19,9.4c19.6,0,19.6,4.4,39.2,4.4c8.9,0,8.9,24.7,17.7,24.7c19.3,0,19.3-4.6,38.6-4.6
					c9.8,0,9.8-1.5,19.6-1.5c9.5,0,9.5-14.6,19-14.6c9.8,0,9.8,43.6,19.6,43.6c9.8,0,9.8-4.5,19.6-4.5c9.5,0,9.5-44.4,19-44.4
					c9.8,0,9.8,20.8,19.6,20.8c9.5,0,9.5-2.9,19-2.9c9.8,0,9.8,53.5,19.6,53.5c9.8,0,9.8,4.9,19.6,4.9c9.2,0,9.2-31,18.4-31
					c9.8,0,9.8-7.5,19.6-7.5c9.5,0,9.5-6.8,19-6.8c9.8,0,9.8,2.8,19.6,2.8c9.5,0,9.5,38.7,19,38.7c9.8,0,9.8-9.5,19.6-9.5
					c9.8,0,9.8-32.2,19.6-32.2c9.5,0,9.5,1.6,19,1.6c9.8,0,9.8,21.6,19.6,21.6c9.5,0,9.5,27.9,19,27.9c9.8,0,9.8,16.8,19.6,16.8
					s9.8,6.9,19.6,6.9c8.9,0,8.9-7.6,17.7-7.6c9.8,0,9.8-30.9,19.6-30.9c9.5,0,9.5,16.6,19,16.6c9.8,0,9.8-15.3,19.6-15.3
					c9.5,0,9.5,21.9,19,21.9c9.8,0,9.8-12.6,19.6-12.6c9.8,0,9.8-29.5,19.6-29.5c9.5,0,9.5,19.9,19,19.9c29.1,0,29.1,73.9,58.2,73.9
					c9.8,0,9.8-26.8,19.6-26.8c18.7,0,18.7-7.4,37.3-7.4c9.5,0,9.5-14.2,19-14.2c9.8,0,9.8-44,19.6-44c9.5,0,9.5,33.6,19,33.6
					c9.8,0,9.8,11.4,19.6,11.4c9.8,0,9.8-12.7,19.6-12.7c9.5,0,9.5,4.4,19,4.4c9.8,0,9.8-5.8,19.6-5.8c9.5,0,9.5,69.9,19,69.9
					c-9.5,0-9.5-76.7-19-76.7c-9.8,0-9.8,4.4-19.6,4.4c-9.5,0-9.5-3.3-19-3.3c-9.8,0-9.8,12.7-19.6,12.7c-9.8,0-9.8-13.4-19.6-13.4
					c-9.5,0-9.5-36.5-19-36.5c-9.8,0-9.8,46.1-19.6,46.1c-9.5,0-9.5,14.2-19,14.2c-18.7,0-18.7,4.3-37.3,4.3c-9.8,0-9.8,31-19.6,31
					c-29.1,0-29.1-73.8-58.2-73.8c-9.5,0-9.5-19.8-19-19.8c-9.8,0-9.8,28.7-19.6,28.7c-9.8,0-9.8,14.2-19.6,14.2
					c-9.5,0-9.5-14.1-19-14.1c-9.8,0-9.8,6.4-19.6,6.4c-9.5,0-9.5-19.5-19-19.5c-9.8,0-9.8,35.2-19.6,35.2c-8.9,0-8.9,7.2-17.7,7.2
					c-9.8,0-9.8-8.7-19.6-8.7s-9.8-15.9-19.6-15.9c-9.5,0-9.5-27.4-19-27.4c-9.8,0-9.8-22.1-19.6-22.1c-9.5,0-9.5-1.2-19-1.2
					c-9.8,0-9.8,31.6-19.6,31.6c-9.8,0-9.8,8-19.6,8c-9.5,0-9.5-38.4-19-38.4c-9.8,0-9.8-1.9-19.6-1.9c-9.5,0-9.5,7-19,7
					c-9.8,0-9.8,4.8-19.6,4.8c-9.2,0-9.2,30.3-18.4,30.3c-9.8,0-9.8-0.6-19.6-0.6c-9.8,0-9.8-53.9-19.6-53.9c-9.5,0-9.5,1.3-19,1.3
					c-9.8,0-9.8-20.7-19.6-20.7c-9.5,0-9.5,44.3-19,44.3c-9.8,0-9.8,4-19.6,4c-9.8,0-9.8-41.7-19.6-41.7c-9.5,0-9.5,12.8-19,12.8
					c-9.8,0-9.8,0.1-19.6,0.1c-19.3,0-19.3,6.1-38.6,6.1c-8.9,0-8.9-27.3-17.7-27.3c-19.6,0-19.6-1.4-39.2-1.4c-9.5,0-9.5-9-19-9
					c-9.8,0-9.8-12.8-19.6-12.8c-9.5,0-9.5,41.8-19,41.8c-9.8,0-9.8,10.7-19.6,10.7c-9.8,0-9.8-40.9-19.6-40.9
					c-9.5,0-9.5,17.2-19,17.2c-9.8,0-9.8,4.6-19.6,4.6c-9.5,0-9.5,10.9-19,10.9c-18.7,0-18.7,8-37.3,8c-9.8,0-9.8-23.7-19.6-23.7
					V510.1z"/>
			</g>
		</g>
		<g class="st1">
			<g>
				<defs>
					<rect id="SVGID_23_" x="46.6" y="504.2" width="1136" height="161.9"/>
				</defs>
				<clipPath id="SVGID_24_">
					<use xlink:href="#SVGID_23_"  style="overflow:visible;"/>
				</clipPath>
				<path class="st11" d="M46.6,548c9.8,0,9.8,14.8,19.6,14.8c18.7,0,18.7-23.9,37.3-23.9c9.5,0,9.5-20.4,19-20.4
					c9.8,0,9.8-4.8,19.6-4.8c9.5,0,9.5,8.6,19,8.6c9.8,0,9.8,29.4,19.6,29.4c9.8,0,9.8-15.9,19.6-15.9c9.5,0,9.5-26.3,19-26.3
					c9.8,0,9.8,1.2,19.6,1.2c9.5,0,9.5,18.3,19,18.3c19.6,0,19.6,38.5,39.2,38.5c8.9,0,8.9-19.3,17.7-19.3
					c19.3,0,19.3-14.5,38.6-14.5c9.8,0,9.8-0.9,19.6-0.9c9.5,0,9.5-6.2,19-6.2c9.8,0,9.8,42.2,19.6,42.2c9.8,0,9.8-2.5,19.6-2.5
					c9.5,0,9.5-35.4,19-35.4c9.8,0,9.8,2.5,19.6,2.5c9.5,0,9.5-2.4,19-2.4c9.8,0,9.8,26.1,19.6,26.1c9.8,0,9.8,51,19.6,51
					c9.2,0,9.2-38.2,18.4-38.2c9.8,0,9.8-18.6,19.6-18.6c9.5,0,9.5-7,19-7c9.8,0,9.8,13.3,19.6,13.3c9.5,0,9.5,30.1,19,30.1
					c9.8,0,9.8-2.8,19.6-2.8c9.8,0,9.8-41.3,19.6-41.3c9.5,0,9.5,2,19,2c9.8,0,9.8,3.5,19.6,3.5c9.5,0,9.5,46.4,19,46.4
					c9.8,0,9.8-14.5,19.6-14.5s9.8,38.4,19.6,38.4c8.9,0,8.9-7.8,17.7-7.8c9.8,0,9.8-29.6,19.6-29.6c9.5,0,9.5-3.9,19-3.9
					c9.8,0,9.8-3.2,19.6-3.2c9.5,0,9.5,10.9,19,10.9c9.8,0,9.8,7.7,19.6,7.7c9.8,0,9.8-31,19.6-31c9.5,0,9.5,30.1,19,30.1
					c29.1,0,29.1,16.1,58.2,16.1c9.8,0,9.8,57.3,19.6,57.3c18.7,0,18.7-42.1,37.3-42.1c9.5,0,9.5-36.9,19-36.9
					c9.8,0,9.8-8.7,19.6-8.7c9.5,0,9.5-0.9,19-0.9c9.8,0,9.8,13.4,19.6,13.4c9.8,0,9.8-12.7,19.6-12.7c9.5,0,9.5,3.3,19,3.3
					c9.8,0,9.8-4.4,19.6-4.4c9.5,0,9.5,80,19,80c-9.5,0-9.5-90.8-19-90.8c-9.8,0-9.8,6.6-19.6,6.6c-9.5,0-9.5-3.3-19-3.3
					c-9.8,0-9.8,12.1-19.6,12.1c-9.8,0-9.8-14.7-19.6-14.7c-9.5,0-9.5,2.3-19,2.3c-9.8,0-9.8,7.7-19.6,7.7c-9.5,0-9.5,37.4-19,37.4
					c-18.7,0-18.7,42.8-37.3,42.8c-9.8,0-9.8-61.6-19.6-61.6c-29.1,0-29.1-11-58.2-11c-9.5,0-9.5-29.8-19-29.8
					c-9.8,0-9.8,29.5-19.6,29.5c-9.8,0-9.8-7-19.6-7c-9.5,0-9.5-2.3-19-2.3c-9.8,0-9.8-6.3-19.6-6.3c-9.5,0-9.5,5-19,5
					c-9.8,0-9.8,30.9-19.6,30.9c-8.9,0-8.9,7.6-17.7,7.6c-9.8,0-9.8-42.4-19.6-42.4s-9.8,18.7-19.6,18.7c-9.5,0-9.5-48.4-19-48.4
					c-9.8,0-9.8-1.2-19.6-1.2c-9.5,0-9.5-1.6-19-1.6c-9.8,0-9.8,41.4-19.6,41.4c-9.8,0-9.8,0.3-19.6,0.3c-9.5,0-9.5-28.4-19-28.4
					c-9.8,0-9.8-13.1-19.6-13.1c-9.5,0-9.5,6.8-19,6.8c-9.8,0-9.8,19.1-19.6,19.1c-9.2,0-9.2,38.9-18.4,38.9
					c-9.8,0-9.8-53.6-19.6-53.6c-9.8,0-9.8-24.3-19.6-24.3c-9.5,0-9.5,2.9-19,2.9c-9.8,0-9.8-2-19.6-2c-9.5,0-9.5,35.6-19,35.6
					c-9.8,0-9.8,2.8-19.6,2.8c-9.8,0-9.8-42.5-19.6-42.5c-9.5,0-9.5,5.1-19,5.1c-9.8,0-9.8,1.5-19.6,1.5
					c-19.3,0-19.3,14.4-38.6,14.4c-8.9,0-8.9,20.4-17.7,20.4c-19.6,0-19.6-38.3-39.2-38.3c-9.5,0-9.5-20.1-19-20.1
					c-9.8,0-9.8,0.9-19.6,0.9c-9.5,0-9.5,26-19,26c-9.8,0-9.8,16.1-19.6,16.1c-9.8,0-9.8-29.6-19.6-29.6c-9.5,0-9.5-9.1-19-9.1
					c-9.8,0-9.8,5-19.6,5c-9.5,0-9.5,20.6-19,20.6c-18.7,0-18.7,25.2-37.3,25.2c-9.8,0-9.8-16.4-19.6-16.4V548z"/>
			</g>
		</g>
		<g class="st1">
			<g>
				<defs>
					<rect id="SVGID_25_" x="46.6" y="515.4" width="1136" height="159.2"/>
				</defs>
				<clipPath id="SVGID_26_">
					<use xlink:href="#SVGID_25_"  style="overflow:visible;"/>
				</clipPath>
				<path class="st12" d="M46.6,564.4c9.8,0,9.8-12.3,19.6-12.3c18.7,0,18.7,7.2,37.3,7.2c9.5,0,9.5-24.1,19-24.1
					c9.8,0,9.8-16,19.6-16c9.5,0,9.5,14.4,19,14.4c9.8,0,9.8,28.6,19.6,28.6c9.8,0,9.8-9.4,19.6-9.4c9.5,0,9.5-27.8,19-27.8
					c9.8,0,9.8,5.5,19.6,5.5c9.5,0,9.5,9.8,19,9.8c19.6,0,19.6,42.9,39.2,42.9c8.9,0,8.9-17.1,17.7-17.1c19.3,0,19.3-8.3,38.6-8.3
					c9.8,0,9.8-12.7,19.6-12.7c9.5,0,9.5-2.1,19-2.1c9.8,0,9.8,38,19.6,38c9.8,0,9.8,5.5,19.6,5.5c9.5,0,9.5-37.4,19-37.4
					c9.8,0,9.8-2.9,19.6-2.9c9.5,0,9.5-1.3,19-1.3c9.8,0,9.8,44,19.6,44c9.8,0,9.8,24.9,19.6,24.9c9.2,0,9.2-19.8,18.4-19.8
					c9.8,0,9.8-10,19.6-10c9.5,0,9.5-26.5,19-26.5c9.8,0,9.8,5.7,19.6,5.7c9.5,0,9.5,64,19,64c9.8,0,9.8-10.8,19.6-10.8
					c9.8,0,9.8-46,19.6-46c9.5,0,9.5,3.7,19,3.7c9.8,0,9.8,16.5,19.6,16.5c9.5,0,9.5,22.8,19,22.8c9.8,0,9.8,21.1,19.6,21.1
					s9.8-9.1,19.6-9.1c8.9,0,8.9-7.7,17.7-7.7c9.8,0,9.8-10.3,19.6-10.3c9.5,0,9.5-5.1,19-5.1c9.8,0,9.8-25.8,19.6-25.8
					c9.5,0,9.5,30.4,19,30.4c9.8,0,9.8,9.7,19.6,9.7c9.8,0,9.8-32.6,19.6-32.6c9.5,0,9.5-1.2,19-1.2c29.1,0,29.1,91.6,58.2,91.6
					c9.8,0,9.8-1.4,19.6-1.4c18.7,0,18.7-39.7,37.3-39.7c9.5,0,9.5,0,19,0c9.8,0,9.8-32.2,19.6-32.2c9.5,0,9.5-3.5,19-3.5
					c9.8,0,9.8,24.1,19.6,24.1c9.8,0,9.8-21,19.6-21c9.5,0,9.5-2.2,19-2.2c9.8,0,9.8,2.7,19.6,2.7c9.5,0,9.5,19.3,19,19.3v-6.3
					c-9.5,0-9.5-19.3-19-19.3c-9.8,0-9.8-2.2-19.6-2.2c-9.5,0-9.5,3-19,3c-9.8,0-9.8,20.8-19.6,20.8c-9.8,0-9.8-27-19.6-27
					c-9.5,0-9.5,5.7-19,5.7c-9.8,0-9.8,31.8-19.6,31.8c-9.5,0-9.5,6.2-19,6.2c-18.7,0-18.7,34.2-37.3,34.2c-9.8,0-9.8,0.7-19.6,0.7
					c-29.1,0-29.1-93.6-58.2-93.6c-9.5,0-9.5,4.8-19,4.8c-9.8,0-9.8,32.5-19.6,32.5c-9.8,0-9.8-9.1-19.6-9.1
					c-9.5,0-9.5-26.3-19-26.3c-9.8,0-9.8,20.9-19.6,20.9c-9.5,0-9.5,4.6-19,4.6c-9.8,0-9.8,11.2-19.6,11.2c-8.9,0-8.9,7.8-17.7,7.8
					c-9.8,0-9.8,9.5-19.6,9.5s-9.8-20.7-19.6-20.7c-9.5,0-9.5-22.7-19-22.7c-9.8,0-9.8-16-19.6-16c-9.5,0-9.5-3.3-19-3.3
					c-9.8,0-9.8,46.2-19.6,46.2c-9.8,0-9.8,9.9-19.6,9.9c-9.5,0-9.5-64.8-19-64.8c-9.8,0-9.8-6.1-19.6-6.1c-9.5,0-9.5,27-19,27
					c-9.8,0-9.8,10-19.6,10c-9.2,0-9.2,19.6-18.4,19.6c-9.8,0-9.8-25.3-19.6-25.3c-9.8,0-9.8-43.5-19.6-43.5c-9.5,0-9.5,1.1-19,1.1
					c-9.8,0-9.8,3.3-19.6,3.3c-9.5,0-9.5,36.7-19,36.7c-9.8,0-9.8-5.2-19.6-5.2c-9.8,0-9.8-37.5-19.6-37.5c-9.5,0-9.5,1.8-19,1.8
					c-9.8,0-9.8,13-19.6,13c-19.3,0-19.3,7.8-38.6,7.8c-8.9,0-8.9,17.7-17.7,17.7c-19.6,0-19.6-43.3-39.2-43.3
					c-9.5,0-9.5-10.4-19-10.4c-9.8,0-9.8-4.4-19.6-4.4c-9.5,0-9.5,27.6-19,27.6c-9.8,0-9.8,9.4-19.6,9.4c-9.8,0-9.8-28.8-19.6-28.8
					c-9.5,0-9.5-14.6-19-14.6c-9.8,0-9.8,16.2-19.6,16.2c-9.5,0-9.5,24.8-19,24.8c-18.7,0-18.7-8.2-37.3-8.2
					c-9.8,0-9.8,12.6-19.6,12.6V564.4z"/>
			</g>
		</g>
		<g class="st1">
			<g>
				<defs>
					<rect id="SVGID_27_" x="46.6" y="288" width="1136" height="217.1"/>
				</defs>
				<clipPath id="SVGID_28_">
					<use xlink:href="#SVGID_27_"  style="overflow:visible;"/>
				</clipPath>
				<path class="st13" d="M46.6,452.1c9.8,0,9.8-19.6,19.6-19.6c18.7,0,18.7-52,37.3-52c9.5,0,9.5,1.3,19,1.3
					c9.8,0,9.8,1.8,19.6,1.8c9.5,0,9.5,8.9,19,8.9c9.8,0,9.8,43.5,19.6,43.5c9.8,0,9.8-75.1,19.6-75.1c9.5,0,9.5,24,19,24
					c9.8,0,9.8,5.2,19.6,5.2c9.5,0,9.5-0.1,19-0.1c19.6,0,19.6,4.9,39.2,4.9c8.9,0,8.9-7.3,17.7-7.3c19.3,0,19.3-5.2,38.6-5.2
					c9.8,0,9.8,2.9,19.6,2.9c9.5,0,9.5,6.4,19,6.4c9.8,0,9.8,53.4,19.6,53.4c9.8,0,9.8-33.9,19.6-33.9c9.5,0,9.5,18.9,19,18.9
					c9.8,0,9.8-4.1,19.6-4.1c9.5,0,9.5-4.5,19-4.5c9.8,0,9.8,44.5,19.6,44.5c9.8,0,9.8-5.8,19.6-5.8c9.2,0,9.2-29.8,18.4-29.8
					c9.8,0,9.8-4.4,19.6-4.4c9.5,0,9.5,0.1,19,0.1c9.8,0,9.8,15.9,19.6,15.9c9.5,0,9.5,20.6,19,20.6c9.8,0,9.8-115.2,19.6-115.2
					c9.8,0,9.8,93.4,19.6,93.4c9.5,0,9.5-5.3,19-5.3c9.8,0,9.8,4.7,19.6,4.7c9.5,0,9.5,15.2,19,15.2c9.8,0,9.8,35.5,19.6,35.5
					S750,468,759.8,468c8.9,0,8.9-4.3,17.7-4.3c9.8,0,9.8-17.5,19.6-17.5c9.5,0,9.5,6.8,19,6.8c9.8,0,9.8,18.5,19.6,18.5
					c9.5,0,9.5,4.3,19,4.3c9.8,0,9.8-61.4,19.6-61.4c9.8,0,9.8,42.1,19.6,42.1c9.5,0,9.5,7.6,19,7.6c29.1,0,28.2,41,57.3,41
					c9.8,0,10.7-5.3,20.5-5.3c18.7,0,18.7-14.4,37.3-14.4c9.5,0,9.5-22,19-22c9.8,0,9.8-8.7,19.6-8.7c9.5,0,9.5,2.1,19,2.1
					c9.8,0,9.8,23.3,19.6,23.3c9.8,0,9.8-7.2,19.6-7.2c9.5,0,9.5-2.5,19-2.5c9.8,0,9.8-10.4,19.6-10.4c9.5,0,9.5,20.3,19,20.3v-51.5
					c-9.5,0-9.5-14.6-19-14.6c-9.8,0-9.8,13-19.6,13c-9.5,0-9.5-5.3-19-5.3c-9.8,0-9.8-4.1-19.6-4.1c-9.8,0-9.8-9.3-19.6-9.3
					c-9.5,0-9.5,7.9-19,7.9c-9.8,0-9.8,3.3-19.6,3.3c-9.5,0-9.5,18.9-19,18.9c-18.7,0-18.7,3.6-37.3,3.6c-9.8,0-9.8,29.2-19.6,29.2
					c-29.1,0-29.1-44.3-58.2-44.3c-9.5,0-9.5-15.1-19-15.1c-9.8,0-9.8-58.9-19.6-58.9c-9.8,0-9.8,77.5-19.6,77.5
					c-9.5,0-9.5,4.4-19,4.4c-9.8,0-9.8-24.7-19.6-24.7c-9.5,0-9.5-7-19-7c-9.8,0-9.8,2.3-19.6,2.3c-8.9,0-8.9,10.8-17.7,10.8
					c-9.8,0-9.8,25.3-19.6,25.3s-9.8-28.3-19.6-28.3c-9.5,0-9.5-13.8-19-13.8c-9.8,0-9.8-0.5-19.6-0.5c-9.5,0-9.5,0.1-19,0.1
					c-9.8,0-9.8-111.1-19.6-111.1c-9.8,0-9.8,132.1-19.6,132.1c-9.5,0-9.5-14.1-19-14.1c-9.8,0-9.8-17.7-19.6-17.7
					c-9.5,0-9.5-0.6-19-0.6c-9.8,0-9.8-6.2-19.6-6.2c-9.2,0-9.2,30-18.4,30c-9.8,0-9.8,14.5-19.6,14.5c-9.8,0-9.8-38.7-19.6-38.7
					c-9.5,0-9.5,3.9-19,3.9c-9.8,0-9.8-5.1-19.6-5.1c-9.5,0-9.5-28.5-19-28.5c-9.8,0-9.8,47.6-19.6,47.6c-9.8,0-9.8-44.7-19.6-44.7
					c-9.5,0-9.5-10.7-19-10.7c-9.8,0-9.8-3-19.6-3c-19.3,0-19.3-4.1-38.6-4.1c-8.9,0-8.9,8.9-17.7,8.9c-19.6,0-19.6,3.2-39.2,3.2
					c-9.5,0-9.5,3.2-19,3.2c-9.8,0-9.8-9.7-19.6-9.7c-9.5,0-9.5-37-19-37c-9.8,0-9.8,87.7-19.6,87.7c-9.8,0-9.8-36.5-19.6-36.5
					c-9.5,0-9.5-10.9-19-10.9c-9.8,0-9.8-3.7-19.6-3.7c-9.5,0-9.5-10-19-10c-18.7,0-18.7,56.1-37.3,56.1c-9.8,0-9.8,24.4-19.6,24.4
					V452.1z"/>
			</g>
		</g>
		<g class="st1">
			<g>
				<defs>
					<rect id="SVGID_29_" x="46.6" y="66.2" width="1136" height="243.5"/>
				</defs>
				<clipPath id="SVGID_30_">
					<use xlink:href="#SVGID_29_"  style="overflow:visible;"/>
				</clipPath>
				<path class="st14" d="M46.6,298.3c9.8,0,9.8-14.7,19.6-14.7c18.7,0,18.7-13.4,37.3-13.4c9.5,0,9.5,10,19,10
					c9.8,0,9.8,10.2,19.6,10.2c9.5,0,9.5,9.9,19,9.9c9.8,0,9.8-3.8,19.6-3.8c9.8,0,9.8,13.4,19.6,13.4c9.5,0,9.5-5.8,19-5.8
					c9.8,0,9.8-2.6,19.6-2.6c9.5,0,9.5-2.4,19-2.4c19.6,0,19.6-13.1,39.2-13.1c8.9,0,8.9-15.1,17.7-15.1c19.3,0,19.3,6.3,38.6,6.3
					c9.8,0,9.8,5.2,19.6,5.2c9.5,0,9.5,12.7,19,12.7c9.8,0,9.8-20.7,19.6-20.7c9.8,0,9.8,17.6,19.6,17.6c9.5,0,9.5-3.9,19-3.9
					c9.8,0,9.8,1.7,19.6,1.7c9.5,0,9.5,4.2,19,4.2c9.8,0,9.8,0.1,19.6,0.1c9.8,0,9.8-33.9,19.6-33.9c9.2,0,9.2-6.6,18.4-6.6
					c9.8,0,9.8,8.4,19.6,8.4c9.5,0,9.5,6.6,19,6.6c9.8,0,9.8,6.4,19.6,6.4c9.5,0,9.5-9.4,19-9.4c9.8,0,9.8,21.1,19.6,21.1
					c9.8,0,9.8,7.6,19.6,7.6c9.5,0,9.5-7.4,19-7.4c9.8,0,9.8-2.9,19.6-2.9c9.5,0,9.5-11.9,19-11.9c9.8,0,9.8-12.3,19.6-12.3
					s9.8,0.3,19.6,0.3c8.9,0,8.9-6.6,17.7-6.6c9.8,0,9.8-10.1,19.6-10.1c9.5,0,9.5,12.5,19,12.5c9.8,0,9.8,30.4,19.6,30.4
					c9.5,0,9.5-29.3,19-29.3c9.8,0,9.8,1.7,19.6,1.7c9.8,0,9.8,18.5,19.6,18.5c9.5,0,9.5-5.2,19-5.2c29.1,0,29.1-15.9,58.2-15.9
					c9.8,0,9.8-39.6,19.6-39.6c18.7,0,18.7,26.3,37.3,26.3c9.5,0,9.5-21.2,19-21.2c9.8,0,9.8,25.3,19.6,25.3c9.5,0,9.5-12.6,19-12.6
					c9.8,0,9.8,1.6,19.6,1.6c9.8,0,9.8,22.4,19.6,22.4c9.5,0,9.5-6.2,19-6.2c9.8,0,9.8-1.4,19.6-1.4c9.5,0,9.5-19.6,19-19.6V108.4
					c-9.5,0-9.5,24.9-19,24.9c-9.8,0-9.8-1.3-19.6-1.3c-9.5,0-9.5,1.9-19,1.9c-9.8,0-9.8-20-19.6-20c-9.8,0-9.8,13.3-19.6,13.3
					c-9.5,0-9.5,10.8-19,10.8c-9.8,0-9.8-26.7-19.6-26.7c-9.5,0-9.5,14.1-19,14.1c-18.7,0-18.7-59-37.3-59c-9.8,0-9.8-0.1-19.6-0.1
					c-29.1,0-29.1,72.3-58.2,72.3c-9.5,0-9.5,19.9-19,19.9c-9.8,0-9.8-35.7-19.6-35.7c-9.8,0-9.8,7.6-19.6,7.6c-9.5,0-9.5,52-19,52
					c-9.8,0-9.8-49.7-19.6-49.7c-9.5,0-9.5-1.4-19-1.4c-9.8,0-9.8-7.8-19.6-7.8c-8.9,0-8.9-7.6-17.7-7.6c-9.8,0-9.8-3.8-19.6-3.8
					s-9.8,22.8-19.6,22.8c-9.5,0-9.5,27-19,27c-9.8,0-9.8,17.3-19.6,17.3c-9.5,0-9.5,4.9-19,4.9c-9.8,0-9.8-38.6-19.6-38.6
					c-9.8,0-9.8-16.5-19.6-16.5c-9.5,0-9.5,41-19,41c-9.8,0-9.8,7.9-19.6,7.9c-9.5,0-9.5-9.8-19-9.8c-9.8,0-9.8-9.1-19.6-9.1
					c-9.2,0-9.2-30.5-18.4-30.5c-9.8,0-9.8,24.8-19.6,24.8c-9.8,0-9.8,39.9-19.6,39.9c-9.5,0-9.5-1.1-19-1.1
					c-9.8,0-9.8,4.6-19.6,4.6c-9.5,0-9.5-38.2-19-38.2c-9.8,0-9.8,1.7-19.6,1.7c-9.8,0-9.8,42.1-19.6,42.1c-9.5,0-9.5-9.9-19-9.9
					c-9.8,0-9.8-1.7-19.6-1.7c-19.3,0-19.3-8.8-38.6-8.8c-8.9,0-8.9-11.8-17.7-11.8c-19.6,0-19.6,33.2-39.2,33.2
					c-9.5,0-9.5,10-19,10c-9.8,0-9.8,12.3-19.6,12.3c-9.5,0-9.5-32-19-32c-9.8,0-9.8-6.3-19.6-6.3c-9.8,0-9.8,22.6-19.6,22.6
					c-9.5,0-9.5,5-19,5c-9.8,0-9.8-5.4-19.6-5.4c-9.5,0-9.5-15.2-19-15.2c-18.7,0-18.7-8.7-37.3-8.7c-9.8,0-9.8-0.4-19.6-0.4V298.3z
					"/>
			</g>
		</g>
		<g class="st1">
			<g>
				<defs>
					<rect id="SVGID_31_" x="46.6" y="450.3" width="1136" height="186.3"/>
				</defs>
				<clipPath id="SVGID_32_">
					<use xlink:href="#SVGID_31_"  style="overflow:visible;"/>
				</clipPath>
				<path class="st15" d="M46.6,532.3c9.8,0,9.8-11.2,19.6-11.2c18.7,0,18.7-19.9,37.3-19.9c9.5,0,9.5-10,19-10
					c9.8,0,9.8-29,19.6-29c9.5,0,9.5,5.4,19,5.4c9.8,0,9.8,41.9,19.6,41.9c9.8,0,9.8-9.6,19.6-9.6c9.5,0,9.5-31.2,19-31.2
					c9.8,0,9.8,1.3,19.6,1.3c9.5,0,9.5-5.1,19-5.1c19.6,0,19.6,80.3,39.2,80.3c8.9,0,8.9-26,17.7-26c19.3,0,19.3-6.1,38.6-6.1
					c9.8,0,9.8-42.5,19.6-42.5c9.5,0,9.5,18.8,19,18.8c9.8,0,9.8,40.1,19.6,40.1c9.8,0,9.8-5.1,19.6-5.1c9.5,0,9.5-30.9,19-30.9
					c9.8,0,9.8-3.6,19.6-3.6c9.5,0,9.5-17.6,19-17.6c9.8,0,9.8,74.8,19.6,74.8c9.8,0,9.8,20.4,19.6,20.4c9.2,0,9.2-30.3,18.4-30.3
					c9.8,0,9.8-4.8,19.6-4.8c9.5,0,9.5-7,19-7c9.8,0,9.8-9.8,19.6-9.8c9.5,0,9.5,50.1,19,50.1c9.8,0,9.8-19.3,19.6-19.3
					c9.8,0,9.8-41.5,19.6-41.5c9.5,0,9.5,22.4,19,22.4c9.8,0,9.8,11.4,19.6,11.4c9.5,0,9.5,26.8,19,26.8c9.8,0,9.8,27.1,19.6,27.1
					s9.8-12.3,19.6-12.3c8.9,0,8.9-6.9,17.7-6.9c9.8,0,9.8-14.6,19.6-14.6c9.5,0,9.5,8.4,19,8.4c9.8,0,9.8-27.3,19.6-27.3
					c9.5,0,9.5,35.9,19,35.9c9.8,0,9.8-16.2,19.6-16.2c9.8,0,9.8-40.4,19.6-40.4c9.5,0,9.5,43.6,19,43.6c29.1,0,29.1,73.8,58.2,73.8
					c9.8,0,9.8-2.9,19.6-2.9c18.7,0,18.7-32.3,37.3-32.3c9.5,0,9.5-25.9,19-25.9c9.8,0,9.8-34.4,19.6-34.4c9.5,0,9.5,24.4,19,24.4
					c9.8,0,9.8,14.7,19.6,14.7c9.8,0,9.8-51.5,19.6-51.5c9.5,0,9.5,42.7,19,42.7c9.8,0,9.8-6.6,19.6-6.6c9.5,0,9.5,39.1,19,39.1
					v-11.1c-9.5,0-9.5-40.1-19-40.1c-9.8,0-9.8,7.7-19.6,7.7c-9.5,0-9.5-44.4-19-44.4c-9.8,0-9.8,53.1-19.6,53.1
					c-9.8,0-9.8-14.1-19.6-14.1c-9.5,0-9.5-25.9-19-25.9c-9.8,0-9.8,34.8-19.6,34.8c-9.5,0-9.5,26.3-19,26.3
					c-18.7,0-18.7,31.8-37.3,31.8c-9.8,0-9.8,3.2-19.6,3.2c-29.1,0-29.1-74.2-58.2-74.2c-9.5,0-9.5-42.8-19-42.8
					c-9.8,0-9.8,39.6-19.6,39.6c-9.8,0-9.8,17.8-19.6,17.8c-9.5,0-9.5-36.8-19-36.8c-9.8,0-9.8,25.7-19.6,25.7
					c-9.5,0-9.5-7.9-19-7.9c-9.8,0-9.8,14.6-19.6,14.6c-8.9,0-8.9,8.3-17.7,8.3c-9.8,0-9.8,13.3-19.6,13.3s-9.8-27.9-19.6-27.9
					c-9.5,0-9.5-27.6-19-27.6c-9.8,0-9.8-10.2-19.6-10.2c-9.5,0-9.5-22.4-19-22.4c-9.8,0-9.8,41.3-19.6,41.3
					c-9.8,0-9.8,18.1-19.6,18.1c-9.5,0-9.5-49.5-19-49.5c-9.8,0-9.8,9.2-19.6,9.2c-9.5,0-9.5,6.9-19,6.9c-9.8,0-9.8,4.5-19.6,4.5
					c-9.2,0-9.2,30-18.4,30c-9.8,0-9.8-18.6-19.6-18.6c-9.8,0-9.8-77.2-19.6-77.2c-9.5,0-9.5,19.2-19,19.2c-9.8,0-9.8,2.5-19.6,2.5
					c-9.5,0-9.5,31-19,31c-9.8,0-9.8,5.1-19.6,5.1c-9.8,0-9.8-40-19.6-40c-9.5,0-9.5-20.6-19-20.6c-9.8,0-9.8,44.1-19.6,44.1
					c-19.3,0-19.3,5.3-38.6,5.3c-8.9,0-8.9,28.6-17.7,28.6c-19.6,0-19.6-83.9-39.2-83.9c-9.5,0-9.5,8.6-19,8.6
					c-9.8,0-9.8-0.5-19.6-0.5c-9.5,0-9.5,31.1-19,31.1c-9.8,0-9.8,8.8-19.6,8.8c-9.8,0-9.8-42.9-19.6-42.9c-9.5,0-9.5-5.5-19-5.5
					c-9.8,0-9.8,31.2-19.6,31.2c-9.5,0-9.5,8.2-19,8.2c-18.7,0-18.7,20.8-37.3,20.8c-9.8,0-9.8,13.5-19.6,13.5V532.3z"/>
			</g>
		</g>
		<g class="st1">
			<g>
				<defs>
					<rect id="SVGID_33_" x="46.6" y="412.1" width="1136" height="239.8"/>
				</defs>
				<clipPath id="SVGID_34_">
					<use xlink:href="#SVGID_33_"  style="overflow:visible;"/>
				</clipPath>
				<path class="st16" d="M980.9,530.7c18.7-0.1,28.6-21,47.3-21c9.5,0,9.5-20.4,19-20.4c9.8,0,9.8-12.5,19.6-12.5
					c9.5,0,9.5,24.3,19,24.3c9.8,0,9.8,22.3,19.6,22.3s9.8-9.2,19.6-9.2c9.5,0,9.5-22.5,19-22.5c9.8,0,9.8-9.8,19.6-9.8
					c9.5,0,9.5,51.6,19,51.6V512c-9.5,0-9.5-50.3-19-50.3c-9.8,0-9.8,10.4-19.6,10.4c-9.5,0-9.5,25.3-19,25.3
					c-9.8,0-9.8,6.1-19.6,6.1s-9.8-21.2-19.6-21.2c-9.5,0-9.5-25.9-19-25.9c-9.8,0-9.8,8.7-19.6,8.7c-9.5,0-9.5,22-19,22
					c-18.7,0-20.9,14.5-37.3,14.4c-10.8-0.1-8.1,5.6-20.8,5.2c-23.5-0.8-57-18.9-57-18.9c-9.5,0-9.5-11.6-19-11.6
					c-9.8,0-9.8,21-19.6,21c-9.8,0-9.8,1.5-19.6,1.5c-9.5,0-9.5-25.5-19-25.5c-9.8,0-9.8-18.5-19.6-18.5c-9.5,0-9.5,57.3-19,57.3
					c-9.8,0-9.8-23.4-19.6-23.4c-8.9,0-8.9-18.9-17.7-18.9c-9.8,0-9.8,182.2-19.6,182.2c-9.8,0-9.8-170.4-19.6-170.4
					c-9.5,0-9.5-39.7-19-39.7c-9.8,0-9.8,14.5-19.6,14.5c-9.5,0-9.5,7.6-19,7.6c-9.8,0-9.8,22.3-19.6,22.3s-9.8,2.5-19.6,2.5
					c-9.5,0-9.5-22.1-19-22.1c-9.8,0-9.8-38.9-19.6-38.9c-9.5,0-9.5-0.1-19-0.1c-9.8,0-9.8,26-19.6,26c-9.2,0-9.2,8.2-18.4,8.2
					c-9.8,0-9.8,148.7-19.6,148.7c-9.8,0-9.8-187.5-19.6-187.5c-9.5,0-9.5,4.5-19,4.5c-9.8,0-9.8,4.1-19.6,4.1
					c-9.5,0-9.5,47.9-19,47.9c-9.8,0-9.8-13.3-19.6-13.3c-9.8,0-9.8-40.3-19.6-40.3c-9.5,0-9.5-7.3-19-7.3c-9.8,0-9.8-1.2-19.6-1.2
					c-19.3,0-19.3,2.1-38.6,2.1c-8.9,0-8.9,18.6-17.7,18.6c-19.6,0-19.6-25-39.2-25c-9.5,0-9.5-1.1-19-1.1c-9.8,0-9.8,1.3-19.6,1.3
					c-9.5,0-9.5,48-19,48c-9.8,0-9.8-7.1-19.6-7.1c-9.8,0-9.8-14.5-19.6-14.5c-9.5,0-9.5-23.4-19-23.4c-9.8,0-9.8-1.2-19.6-1.2
					c-9.5,0-9.5,4.7-19,4.7c-18.7,0-18.7,14.3-37.3,14.3c-9.8,0-9.8,144.5-19.6,144.5c9.8,0,9.8-124.6,19.6-124.6
					c18.7,0,18.7-13.6,37.3-13.6c9.5,0,9.5-5.5,19-5.5c9.8,0,9.8-2.7,19.6-2.7c9.5,0,9.5,21.9,19,21.9c9.8,0,9.8,14.5,19.6,14.5
					c9.8,0,9.8,5.5,19.6,5.5c9.5,0,9.5-44.8,19-44.8c9.8,0,9.8-0.8,19.6-0.8c9.5,0,9.5,2.7,19,2.7c19.6,0,19.6,29.3,39.2,29.3
					c8.9,0,8.9-24,17.7-24c19.3,0,19.3,0.8,38.6,0.8c9.8,0,9.8-0.6,19.6-0.6c9.5,0,9.5,5.5,19,5.5c9.8,0,9.8,41.6,19.6,41.6
					c9.8,0,9.8,11.1,19.6,11.1c9.5,0,9.5-46.2,19-46.2c9.8,0,9.8-3.4,19.6-3.4c9.5,0,9.5-3.4,19-3.4c9.8,0,9.8,168.9,19.6,168.9
					c9.8,0,9.8-124.5,19.6-124.5c9.2,0,9.2-14.8,18.4-14.8c9.8,0,9.8-21.1,19.6-21.1c9.5,0,9.5-2.2,19-2.2c9.8,0,9.8,37.6,19.6,37.6
					c9.5,0,9.5,20.1,19,20.1c9.8,0,9.8-1.2,19.6-1.2s9.8-25.8,19.6-25.8c9.5,0,9.5-5.7,19-5.7c9.8,0,9.8-11.9,19.6-11.9
					c9.5,0,9.5,39.1,19,39.1c9.8,0,9.8,151.6,19.6,151.6c9.8,0,9.8-155.6,19.6-155.6c8.9,0,8.9,11.5,17.7,11.5
					c9.8,0,9.8,22.1,19.6,22.1c9.5,0,9.5-50,19-50c9.8,0,9.8,11.9,19.6,11.9c9.5,0,9.5,24.2,19,24.2c9.8,0,9.8,0.2,19.6,0.2
					c9.8,0,9.8-24.8,19.6-24.8c9.5,0,9.5,15.3,19,15.2C937,506.6,935.2,530.9,980.9,530.7"/>
			</g>
		</g>
		<g class="st1">
			<g>
				<defs>
					<rect id="SVGID_35_" x="46.6" y="516.5" width="1136" height="173.7"/>
				</defs>
				<clipPath id="SVGID_36_">
					<use xlink:href="#SVGID_35_"  style="overflow:visible;"/>
				</clipPath>
				<path class="st17" d="M46.6,559.1c9.8,0,9.8,12.8,19.6,12.8c18.7,0,18.7-8.2,37.3-8.2c9.5,0,9.5-23.7,19-23.7
					c9.8,0,9.8-15.4,19.6-15.4c9.5,0,9.5,31,19,31c9.8,0,9.8-16.8,19.6-16.8c9.8,0,9.8,3.2,19.6,3.2c9.5,0,9.5-22,19-22
					c9.8,0,9.8,15.2,19.6,15.2c9.5,0,9.5,23.3,19,23.3c19.6,0,19.6,14.3,39.2,14.3c8.9,0,8.9-12.5,17.7-12.5
					c19.3,0,19.3,2.3,38.6,2.3c9.8,0,9.8-12.2,19.6-12.2c9.5,0,9.5,9.3,19,9.3c9.8,0,9.8,2.3,19.6,2.3c9.8,0,9.8,18.4,19.6,18.4
					c9.5,0,9.5-42.3,19-42.3c9.8,0,9.8,18.8,19.6,18.8c9.5,0,9.5-6.9,19-6.9c9.8,0,9.8,44.6,19.6,44.6c9.8,0,9.8,29.4,19.6,29.4
					c9.2,0,9.2-41,18.4-41c9.8,0,9.8-4.5,19.6-4.5c9.5,0,9.5-9.4,19-9.4c9.8,0,9.8,26.5,19.6,26.5c9.5,0,9.5,2.3,19,2.3
					c9.8,0,9.8-20.8,19.6-20.8c9.8,0,9.8-26.7,19.6-26.7c9.5,0,9.5,14.1,19,14.1c9.8,0,9.8,9.9,19.6,9.9c9.5,0,9.5,52.6,19,52.6
					c9.8,0,9.8,2.2,19.6,2.2s9.8,1.9,19.6,1.9c8.9,0,8.9-7.4,17.7-7.4c9.8,0,9.8-3.5,19.6-3.5c9.5,0,9.5,4.2,19,4.2
					c9.8,0,9.8-44.4,19.6-44.4c9.5,0,9.5,47.2,19,47.2c9.8,0,9.8-24.1,19.6-24.1c9.8,0,9.8-32,19.6-32c9.5,0,9.5,27.7,19,27.7
					c29.1,0,29.1,81.8,58.2,81.8c9.8,0,9.8,9.7,19.6,9.7c18.7,0,18.7-53.4,37.3-53.4c9.5,0,9.5,8.3,19,8.3c9.8,0,9.8-17.7,19.6-17.7
					c9.5,0,9.5-22.4,19-22.4c9.8,0,9.8,2.3,19.6,2.3c9.8,0,9.8-0.1,19.6-0.1c9.5,0,9.5,19.3,19,19.3c9.8,0,9.8-2.4,19.6-2.4
					c9.5,0,9.5,20.9,19,20.9v-3.4c-9.5,0-9.5-20.8-19-20.8c-9.8,0-9.8,2.6-19.6,2.6c-9.5,0-9.5-20.8-19-20.8
					c-9.8,0-9.8-1.5-19.6-1.5c-9.8,0-9.8-1.7-19.6-1.7c-9.5,0-9.5,26.2-19,26.2c-9.8,0-9.8,15.8-19.6,15.8c-9.5,0-9.5-4.7-19-4.7
					c-18.7,0-18.7,50-37.3,50c-9.8,0-9.8-10.6-19.6-10.6c-29.1,0-29.1-81.9-58.2-81.9c-9.5,0-9.5-30.1-19-30.1
					c-9.8,0-9.8,31-19.6,31c-9.8,0-9.8,28.8-19.6,28.8c-9.5,0-9.5-44.1-19-44.1c-9.8,0-9.8,41.4-19.6,41.4c-9.5,0-9.5-5.8-19-5.8
					c-9.8,0-9.8,4-19.6,4c-8.9,0-8.9,7.7-17.7,7.7c-9.8,0-9.8-2.9-19.6-2.9s-9.8,0.3-19.6,0.3c-9.5,0-9.5-55.2-19-55.2
					c-9.8,0-9.8-8.6-19.6-8.6c-9.5,0-9.5-15.3-19-15.3c-9.8,0-9.8,24.2-19.6,24.2c-9.8,0-9.8,19.9-19.6,19.9c-9.5,0-9.5,4.6-19,4.6
					c-9.8,0-9.8-29-19.6-29c-9.5,0-9.5,9.4-19,9.4c-9.8,0-9.8,4.4-19.6,4.4c-9.2,0-9.2,41.8-18.4,41.8c-9.8,0-9.8-30.1-19.6-30.1
					c-9.8,0-9.8-44-19.6-44c-9.5,0-9.5,6.7-19,6.7c-9.8,0-9.8-20.5-19.6-20.5c-9.5,0-9.5,42.4-19,42.4c-9.8,0-9.8-19.9-19.6-19.9
					c-9.8,0-9.8,2.3-19.6,2.3c-9.5,0-9.5-10.9-19-10.9c-9.8,0-9.8,12.7-19.6,12.7c-19.3,0-19.3-3.2-38.6-3.2
					c-8.9,0-8.9,13.1-17.7,13.1c-19.6,0-19.6-12.7-39.2-12.7c-9.5,0-9.5-24.5-19-24.5c-9.8,0-9.8-15.6-19.6-15.6
					c-9.5,0-9.5,21-19,21c-9.8,0-9.8-4.7-19.6-4.7c-9.8,0-9.8,20.3-19.6,20.3c-9.5,0-9.5-32.3-19-32.3c-9.8,0-9.8,16-19.6,16
					c-9.5,0-9.5,24.1-19,24.1c-18.7,0-18.7,8.2-37.3,8.2c-9.8,0-9.8-13.8-19.6-13.8V559.1z"/>
			</g>
		</g>
		<g class="st1">
			<g>
				<defs>
					<rect id="SVGID_37_" x="46.6" y="421.9" width="1136" height="201.6"/>
				</defs>
				<clipPath id="SVGID_38_">
					<use xlink:href="#SVGID_37_"  style="overflow:visible;"/>
				</clipPath>
				<path class="st18" d="M46.6,483.9c9.8,0,9.8-14.8,19.6-14.8c18.7,0,18.7-10.6,37.3-10.6c9.5,0,9.5-8.2,19-8.2
					c9.8,0,9.8-1.7,19.6-1.7c9.5,0,9.5-10.5,19-10.5c9.8,0,9.8,45.2,19.6,45.2c9.8,0,9.8,4.9,19.6,4.9c9.5,0,9.5-44,19-44
					c9.8,0,9.8-0.1,19.6-0.1c9.5,0,9.5,4.8,19,4.8c19.6,0,19.6,43,39.2,43c8.9,0,8.9-37.6,17.7-37.6c19.3,0,19.3-0.3,38.6-0.3
					c9.8,0,9.8,0.9,19.6,0.9c9.5,0,9.5,20.6,19,20.6c9.8,0,9.8,40,19.6,40c9.8,0,9.8-5.1,19.6-5.1c9.5,0,9.5-31,19-31
					c9.8,0,9.8-2.5,19.6-2.5c9.5,0,9.5-19.2,19-19.2c9.8,0,9.8,77.2,19.6,77.2c9.8,0,9.8,4.4,19.6,4.4c9.2,0,9.2-15.8,18.4-15.8
					c9.8,0,9.8-35.4,19.6-35.4c9.5,0,9.5-5.3,19-5.3c9.8,0,9.8,20.2,19.6,20.2c9.5,0,9.5,35.9,19,35.9c9.8,0,9.8-19.2,19.6-19.2
					c9.8,0,9.8-26.5,19.6-26.5c9.5,0,9.5,22.4,19,22.4c9.8,0,9.8-4.6,19.6-4.6c9.5,0,9.5,42.4,19,42.4c9.8,0,9.8,15,19.6,15
					s9.8-0.4,19.6-0.4c8.9,0,8.9-8.3,17.7-8.3c9.8,0,9.8-14.6,19.6-14.6c9.5,0,9.5-7.3,19-7.3c9.8,0,9.8-10.5,19.6-10.5
					c9.5,0,9.5,36.8,19,36.8c9.8,0,9.8-17.8,19.6-17.8c9.8,0,9.8-39.6,19.6-39.6c9.5,0,9.5,14.9,19,14.9
					c29.1,0,29.1,102.1,58.2,102.1c9.8,0,9.8-17.9,19.6-17.9c18.7,0,18.7-17.1,37.3-17.1c9.5,0,9.5-42.6,19-42.6
					c9.8,0,9.8-32.3,19.6-32.3c9.5,0,9.5,39.6,19,39.6c9.8,0,9.8,14.1,19.6,14.1c9.8,0,9.8-24.6,19.6-24.6c9.5,0,9.5,15.9,19,15.9
					c9.8,0,9.8-7.7,19.6-7.7c9.5,0,9.5,40.1,19,40.1v-13.2c-9.5,0-9.5-40.2-19-40.2c-9.8,0-9.8,8.1-19.6,8.1
					c-9.5,0-9.5-15.6-19-15.6c-9.8,0-9.8,25.2-19.6,25.2c-9.8,0-9.8-14.7-19.6-14.7c-9.5,0-9.5-42.2-19-42.2
					c-9.8,0-9.8,32.2-19.6,32.2c-9.5,0-9.5,43.1-19,43.1c-18.7,0-18.7,18.1-37.3,18.1c-9.8,0-9.8,18.7-19.6,18.7
					c-29.1,0-29.1-102-58.2-102c-9.5,0-9.5-15.2-19-15.2c-9.8,0-9.8,39.9-19.6,39.9c-9.8,0-9.8,18.9-19.6,18.9
					c-9.5,0-9.5-39.2-19-39.2c-9.8,0-9.8,9.6-19.6,9.6c-9.5,0-9.5,9.2-19,9.2c-9.8,0-9.8,13.5-19.6,13.5c-8.9,0-8.9,10-17.7,10
					c-9.8,0-9.8,1.7-19.6,1.7s-9.8-17.8-19.6-17.8c-9.5,0-9.5-42.4-19-42.4c-9.8,0-9.8,6.5-19.6,6.5c-9.5,0-9.5-22.7-19-22.7
					c-9.8,0-9.8,25.8-19.6,25.8c-9.8,0-9.8,19.1-19.6,19.1c-9.5,0-9.5-38-19-38c-9.8,0-9.8-18.7-19.6-18.7c-9.5,0-9.5,3.5-19,3.5
					c-9.8,0-9.8,35.9-19.6,35.9c-9.2,0-9.2,16.9-18.4,16.9c-9.8,0-9.8-2.9-19.6-2.9c-9.8,0-9.8-78.6-19.6-78.6
					c-9.5,0-9.5,19.7-19,19.7c-9.8,0-9.8,2.7-19.6,2.7c-9.5,0-9.5,30.7-19,30.7c-9.8,0-9.8,5.1-19.6,5.1c-9.8,0-9.8-40.8-19.6-40.8
					c-9.5,0-9.5-22.4-19-22.4c-9.8,0-9.8,0.6-19.6,0.6c-19.3,0-19.3-0.8-38.6-0.8c-8.9,0-8.9,40.1-17.7,40.1
					c-19.6,0-19.6-45.5-39.2-45.5c-9.5,0-9.5-2.7-19-2.7c-9.8,0-9.8,0.8-19.6,0.8c-9.5,0-9.5,44.8-19,44.8c-9.8,0-9.8-5.5-19.6-5.5
					c-9.8,0-9.8-48.4-19.6-48.4c-9.5,0-9.5,12-19,12c-9.8,0-9.8,2.7-19.6,2.7c-9.5,0-9.5,5.5-19,5.5c-18.7,0-18.7,13.6-37.3,13.6
					c-9.8,0-9.8,15.5-19.6,15.5V483.9z"/>
			</g>
		</g>
		<g class="st1">
			<g>
				<defs>
					<rect id="SVGID_39_" x="46.6" y="437.2" width="1136" height="139"/>
				</defs>
				<clipPath id="SVGID_40_">
					<use xlink:href="#SVGID_39_"  style="overflow:visible;"/>
				</clipPath>
				<path class="st19" d="M46.6,497.4c9.8,0,9.8-1.7,19.6-1.7c18.7,0,18.7,17.4,37.3,17.4c9.5,0,9.5-10.9,19-10.9
					c9.8,0,9.8-15.9,19.6-15.9c9.5,0,9.5-5.9,19-5.9c9.8,0,9.8-27.8,19.6-27.8c9.8,0,9.8,7.1,19.6,7.1c9.5,0,9.5-2.6,19-2.6
					c9.8,0,9.8,0.5,19.6,0.5c9.5,0,9.5,33,19,33c19.6,0,19.6-13.9,39.2-13.9c8.9,0,8.9,27.6,17.7,27.6c19.3,0,19.3-5.3,38.6-5.3
					c9.8,0,9.8-13.6,19.6-13.6c9.5,0,9.5-26.3,19-26.3c9.8,0,9.8,5.7,19.6,5.7c9.8,0,9.8,13.3,19.6,13.3c9.5,0,9.5-13.9,19-13.9
					c9.8,0,9.8-2.7,19.6-2.7c9.5,0,9.5,25.2,19,25.2c9.8,0,9.8,17.7,19.6,17.7c9.8,0,9.8,2.3,19.6,2.3c9.2,0,9.2-17.7,18.4-17.7
					c9.8,0,9.8-18.4,19.6-18.4c9.5,0,9.5-3.5,19-3.5c9.8,0,9.8-2,19.6-2c9.5,0,9.5,22.1,19,22.1c9.8,0,9.8-2.5,19.6-2.5
					c9.8,0,9.8-22.3,19.6-22.3c9.5,0,9.5-7.6,19-7.6c9.8,0,9.8,24.3,19.6,24.3c9.5,0,9.5,58.4,19,58.4c9.8,0,9.8,1.1,19.6,1.1
					s9.8-21,19.6-21c8.9,0,8.9-30.6,17.7-30.6c9.8,0,9.8-18.6,19.6-18.6c9.5,0,9.5,34.8,19,34.8c9.8,0,9.8,8.1,19.6,8.1
					c9.5,0,9.5-14,19-14c9.8,0,9.8-1.5,19.6-1.5c9.8,0,9.8-21,19.6-21c9.5,0,9.5,11.6,19,11.6c29.1,0,29.1,88.9,58.2,88.9
					c9.8,0,9.8-21.4,19.6-21.4c18.7,0,18.7-20.3,37.3-20.3c9.5,0,9.5-4.4,19-4.4c9.8,0,9.8-32.2,19.6-32.2c9.5,0,9.5-16.1,19-16.1
					c9.8,0,9.8,21.2,19.6,21.2c9.8,0,9.8-6.1,19.6-6.1c9.5,0,9.5,16.2,19,16.2c9.8,0,9.8,6.8,19.6,6.8c9.5,0,9.5,57.3,19,57.3v-18.6
					c-9.5,0-9.5-54.6-19-54.6c-9.8,0-9.8-9.6-19.6-9.6c-9.5,0-9.5-18.7-19-18.7c-9.8,0-9.8,7.2-19.6,7.2c-9.8,0-9.8-23.3-19.6-23.3
					c-9.5,0-9.5,19.9-19,19.9c-9.8,0-9.8,32.8-19.6,32.8c-9.5,0-9.5,0.2-19,0.2c-18.7,0-18.7,21.3-37.3,21.3
					c-9.8,0-9.8,24.2-19.6,24.2c-29.1,0-29.1-91.1-58.2-91.1c-9.5,0-9.5-7.6-19-7.6c-9.8,0-9.8,18.2-19.6,18.2
					c-9.8,0-9.8,1.1-19.6,1.1c-9.5,0-9.5,16-19,16c-9.8,0-9.8-11.9-19.6-11.9c-9.5,0-9.5-33.7-19-33.7c-9.8,0-9.8,17.5-19.6,17.5
					c-8.9,0-8.9,32.5-17.7,32.5c-9.8,0-9.8,19.6-19.6,19.6s-9.8,4.8-19.6,4.8c-9.5,0-9.5-59.5-19-59.5c-9.8,0-9.8-25.6-19.6-25.6
					c-9.5,0-9.5,5.3-19,5.3c-9.8,0-9.8,21.6-19.6,21.6c-9.8,0-9.8,0.2-19.6,0.2c-9.5,0-9.5-20.6-19-20.6c-9.8,0-9.8,6-19.6,6
					c-9.5,0-9.5,2.2-19,2.2c-9.8,0-9.8,21.1-19.6,21.1c-9.2,0-9.2,14.8-18.4,14.8c-9.8,0-9.8,1.8-19.6,1.8
					c-9.8,0-9.8-15.7-19.6-15.7c-9.5,0-9.5-27.1-19-27.1c-9.8,0-9.8,3.4-19.6,3.4c-9.5,0-9.5,12.1-19,12.1
					c-9.8,0-9.8-15.6-19.6-15.6c-9.8,0-9.8-3-19.6-3c-9.5,0-9.5,28.4-19,28.4c-9.8,0-9.8,13.5-19.6,13.5c-19.3,0-19.3,4.5-38.6,4.5
					c-8.9,0-8.9-28.1-17.7-28.1c-19.6,0-19.6,17.9-39.2,17.9c-9.5,0-9.5-34.2-19-34.2c-9.8,0-9.8,0.1-19.6,0.1
					c-9.5,0-9.5,0.2-19,0.2c-9.8,0-9.8-8.4-19.6-8.4c-9.8,0-9.8,31.5-19.6,31.5c-9.5,0-9.5,7.1-19,7.1c-9.8,0-9.8,16.5-19.6,16.5
					c-9.5,0-9.5,10-19,10c-18.7,0-18.7-18.8-37.3-18.8c-9.8,0-9.8,1.4-19.6,1.4V497.4z"/>
			</g>
		</g>
		<g class="st1">
			<g>
				<defs>
					<rect id="SVGID_41_" x="46.6" y="511.3" width="1136" height="175.1"/>
				</defs>
				<clipPath id="SVGID_42_">
					<use xlink:href="#SVGID_41_"  style="overflow:visible;"/>
				</clipPath>
				<path class="st20" d="M46.6,569.4c9.8,0,9.8-11.8,19.6-11.8c18.7,0,18.7-12.9,37.3-12.9c9.5,0,9.5-14.8,19-14.8
					c9.8,0,9.8-0.1,19.6-0.1c9.5,0,9.5,13.4,19,13.4c9.8,0,9.8,23.8,19.6,23.8c9.8,0,9.8-9.5,19.6-9.5c9.5,0,9.5-42.5,19-42.5
					c9.8,0,9.8,9.5,19.6,9.5c9.5,0,9.5,20.9,19,20.9c19.6,0,19.6,32.8,39.2,32.8c8.9,0,8.9-6.5,17.7-6.5c19.3,0,19.3-24.8,38.6-24.8
					c9.8,0,9.8,8.7,19.6,8.7c9.5,0,9.5-7.6,19-7.6c9.8,0,9.8,48.7,19.6,48.7c9.8,0,9.8-5.1,19.6-5.1c9.5,0,9.5-37.5,19-37.5
					c9.8,0,9.8-2.4,19.6-2.4c9.5,0,9.5,3.6,19,3.6c9.8,0,9.8,45,19.6,45c9.8,0,9.8,18.9,19.6,18.9c9.2,0,9.2-30.5,18.4-30.5
					c9.8,0,9.8-15.8,19.6-15.8c9.5,0,9.5,1.8,19,1.8c9.8,0,9.8-0.3,19.6-0.3c9.5,0,9.5,48.1,19,48.1c9.8,0,9.8-19,19.6-19
					c9.8,0,9.8-41.7,19.6-41.7c9.5,0,9.5,7.8,19,7.8c9.8,0,9.8,16,19.6,16c9.5,0,9.5,32.8,19,32.8c9.8,0,9.8,31.8,19.6,31.8
					s9.8-14.2,19.6-14.2c8.9,0,8.9-6.9,17.7-6.9c9.8,0,9.8-15.3,19.6-15.3c9.5,0,9.5,0.4,19,0.4c9.8,0,9.8-32.8,19.6-32.8
					c9.5,0,9.5,40.9,19,40.9c9.8,0,9.8,11.1,19.6,11.1c9.8,0,9.8-43.9,19.6-43.9c9.5,0,9.5,20.7,19,20.7c29.1,0,29.1,76,58.2,76
					c9.8,0,9.8-7,19.6-7c18.7,0,18.7-41,37.3-41c9.5,0,9.5-12.7,19-12.7c9.8,0,9.8-31.8,19.6-31.8c9.5,0,9.5,30.3,19,30.3
					c9.8,0,9.8,10.8,19.6,10.8c9.8,0,9.8-16.1,19.6-16.1c9.5,0,9.5-7.5,19-7.5c9.8,0,9.8-3.7,19.6-3.7c9.5,0,9.5,26.5,19,26.5v-4.8
					c-9.5,0-9.5-26.3-19-26.3c-9.8,0-9.8,4.2-19.6,4.2c-9.5,0-9.5,7.6-19,7.6c-9.8,0-9.8,15.4-19.6,15.4c-9.8,0-9.8-10.5-19.6-10.5
					c-9.5,0-9.5-32-19-32c-9.8,0-9.8,31.1-19.6,31.1c-9.5,0-9.5,19.5-19,19.5c-18.7,0-18.7,36.4-37.3,36.4c-9.8,0-9.8,7.3-19.6,7.3
					c-29.1,0-29.1-75.8-58.2-75.8c-9.5,0-9.5-20.6-19-20.6c-9.8,0-9.8,44.2-19.6,44.2c-9.8,0-9.8-10.7-19.6-10.7
					c-9.5,0-9.5-37.7-19-37.7c-9.8,0-9.8,28.6-19.6,28.6c-9.5,0-9.5-1-19-1c-9.8,0-9.8,16.1-19.6,16.1c-8.9,0-8.9,7.4-17.7,7.4
					c-9.8,0-9.8,14.2-19.6,14.2s-9.8-31.7-19.6-31.7c-9.5,0-9.5-33.5-19-33.5c-9.8,0-9.8-15.6-19.6-15.6c-9.5,0-9.5-7.9-19-7.9
					c-9.8,0-9.8,41.8-19.6,41.8c-9.8,0-9.8,18.8-19.6,18.8c-9.5,0-9.5-48.2-19-48.2c-9.8,0-9.8,0.3-19.6,0.3c-9.5,0-9.5-2.5-19-2.5
					c-9.8,0-9.8,16.5-19.6,16.5c-9.2,0-9.2,30.8-18.4,30.8c-9.8,0-9.8-19.2-19.6-19.2c-9.8,0-9.8-44.6-19.6-44.6
					c-9.5,0-9.5-3.9-19-3.9c-9.8,0-9.8,2.9-19.6,2.9c-9.5,0-9.5,37.4-19,37.4c-9.8,0-9.8,5.3-19.6,5.3c-9.8,0-9.8-48.8-19.6-48.8
					c-9.5,0-9.5,7.5-19,7.5c-9.8,0-9.8-9.6-19.6-9.6c-19.3,0-19.3,25.1-38.6,25.1c-8.9,0-8.9,6.8-17.7,6.8
					c-19.6,0-19.6-32.6-39.2-32.6c-9.5,0-9.5-21.9-19-21.9c-9.8,0-9.8-8.7-19.6-8.7c-9.5,0-9.5,43.2-19,43.2
					c-9.8,0-9.8,9.4-19.6,9.4c-9.8,0-9.8-23.7-19.6-23.7c-9.5,0-9.5-13.9-19-13.9c-9.8,0-9.8-0.2-19.6-0.2c-9.5,0-9.5,14.4-19,14.4
					c-18.7,0-18.7,13.2-37.3,13.2c-9.8,0-9.8,12.3-19.6,12.3V569.4z"/>
			</g>
		</g>
		<g class="st1">
			<g>
				<defs>
					<rect id="SVGID_43_" x="46.6" y="534.4" width="1136" height="161.5"/>
				</defs>
				<clipPath id="SVGID_44_">
					<use xlink:href="#SVGID_43_"  style="overflow:visible;"/>
				</clipPath>
				<path class="st21" d="M46.6,573.3c9.8,0,9.8,3,19.6,3c18.7,0,18.7-8.8,37.3-8.8c9.5,0,9.5-15,19-15c9.8,0,9.8-9,19.6-9
					c9.5,0,9.5,8,19,8c9.8,0,9.8,23.6,19.6,23.6c9.8,0,9.8-10,19.6-10c9.5,0,9.5-28.7,19-28.7c9.8,0,9.8,3.3,19.6,3.3
					c9.5,0,9.5,22.4,19,22.4c19.6,0,19.6,25.3,39.2,25.3c8.9,0,8.9-11.6,17.7-11.6c19.3,0,19.3-9,38.6-9c9.8,0,9.8-2.1,19.6-2.1
					c9.5,0,9.5-12.8,19-12.8c9.8,0,9.8,53.2,19.6,53.2c9.8,0,9.8-1.6,19.6-1.6c9.5,0,9.5-41.8,19-41.8c9.8,0,9.8,8,19.6,8
					c9.5,0,9.5,2.5,19,2.5c9.8,0,9.8,36.7,19.6,36.7c9.8,0,9.8,19.7,19.6,19.7c9.2,0,9.2-26.1,18.4-26.1c9.8,0,9.8-9.5,19.6-9.5
					c9.5,0,9.5-13.9,19-13.9c9.8,0,9.8,5.5,19.6,5.5c9.5,0,9.5,51.9,19,51.9c9.8,0,9.8-24,19.6-24c9.8,0,9.8-38.1,19.6-38.1
					c9.5,0,9.5,7.9,19,7.9c9.8,0,9.8,17,19.6,17c9.5,0,9.5,31.2,19,31.2c9.8,0,9.8,14.5,19.6,14.5s9.8-4.1,19.6-4.1
					c8.9,0,8.9-7.4,17.7-7.4c9.8,0,9.8-8.1,19.6-8.1c9.5,0,9.5-5.9,19-5.9c9.8,0,9.8-36.5,19.6-36.5c9.5,0,9.5,34.5,19,34.5
					c9.8,0,9.8,25,19.6,25c9.8,0,9.8-43.6,19.6-43.6c9.5,0,9.5,24.3,19,24.3c29.1,0,29.1,72.5,58.2,72.5c9.8,0,9.8-10.7,19.6-10.7
					c18.7,0,18.7-45.1,37.3-45.1c9.5,0,9.5-0.2,19-0.2c9.8,0,9.8-25,19.6-25c9.5,0,9.5-2.9,19-2.9c9.8,0,9.8,29.2,19.6,29.2
					c9.8,0,9.8-16.9,19.6-16.9c9.5,0,9.5-7.2,19-7.2c9.8,0,9.8,2.3,19.6,2.3c9.5,0,9.5,20.8,19,20.8v-4.2c-9.5,0-9.5-20.5-19-20.5
					c-9.8,0-9.8-2.3-19.6-2.3c-9.5,0-9.5,7.5-19,7.5c-9.8,0-9.8,16.1-19.6,16.1c-9.8,0-9.8-30-19.6-30c-9.5,0-9.5,3.2-19,3.2
					c-9.8,0-9.8,25.2-19.6,25.2c-9.5,0-9.5,4.9-19,4.9c-18.7,0-18.7,41-37.3,41c-9.8,0-9.8,11.9-19.6,11.9
					c-29.1,0-29.1-72.1-58.2-72.1c-9.5,0-9.5-24.3-19-24.3c-9.8,0-9.8,43.4-19.6,43.4c-9.8,0-9.8-25.6-19.6-25.6
					c-9.5,0-9.5-31.1-19-31.1c-9.8,0-9.8,32.8-19.6,32.8c-9.5,0-9.5,5.8-19,5.8c-9.8,0-9.8,9.1-19.6,9.1c-8.9,0-8.9,6.9-17.7,6.9
					c-9.8,0-9.8,3.8-19.6,3.8s-9.8-13.1-19.6-13.1c-9.5,0-9.5-31.7-19-31.7c-9.8,0-9.8-16.7-19.6-16.7c-9.5,0-9.5-7.9-19-7.9
					c-9.8,0-9.8,37.8-19.6,37.8c-9.8,0-9.8,23.7-19.6,23.7c-9.5,0-9.5-52.4-19-52.4c-9.8,0-9.8-5-19.6-5c-9.5,0-9.5,14-19,14
					c-9.8,0-9.8,9.8-19.6,9.8c-9.2,0-9.2,25.7-18.4,25.7c-9.8,0-9.8-19.2-19.6-19.2c-9.8,0-9.8-36.6-19.6-36.6
					c-9.5,0-9.5-2.6-19-2.6c-9.8,0-9.8-7.7-19.6-7.7c-9.5,0-9.5,41.9-19,41.9c-9.8,0-9.8,1-19.6,1c-9.8,0-9.8-53-19.6-53
					c-9.5,0-9.5,12.6-19,12.6c-9.8,0-9.8,2.2-19.6,2.2c-19.3,0-19.3,8.9-38.6,8.9c-8.9,0-8.9,11.6-17.7,11.6
					c-19.6,0-19.6-24.6-39.2-24.6c-9.5,0-9.5-23.3-19-23.3c-9.8,0-9.8-2.5-19.6-2.5c-9.5,0-9.5,28.8-19,28.8
					c-9.8,0-9.8,9.5-19.6,9.5c-9.8,0-9.8-23.8-19.6-23.8c-9.5,0-9.5-8.1-19-8.1c-9.8,0-9.8,9.5-19.6,9.5c-9.5,0-9.5,15-19,15
					c-18.7,0-18.7,8.2-37.3,8.2c-9.8,0-9.8-2.5-19.6-2.5V573.3z"/>
			</g>
		</g>
		<g class="st22">
			<g>
				<defs>
					<rect id="SVGID_45_" x="48.6" y="705.3" width="27.4" height="17.5"/>
				</defs>
				<clipPath id="SVGID_46_">
					<use xlink:href="#SVGID_45_"  style="overflow:visible;"/>
				</clipPath>
				<g class="st23">
					<text transform="matrix(1 0 0 1 48.5752 718.21)" class="st24 st25 st26">2014</text>
				</g>
			</g>
		</g>
		<g class="st22">
			<g>
				<defs>
					<rect id="SVGID_47_" x="263.3" y="705.3" width="27.4" height="17.5"/>
				</defs>
				<clipPath id="SVGID_48_">
					<use xlink:href="#SVGID_47_"  style="overflow:visible;"/>
				</clipPath>
				<g class="st27">
					<text transform="matrix(1 0 0 1 263.3164 718.21)" class="st24 st25 st26">2015</text>
				</g>
			</g>
		</g>
		<g class="st22">
			<g>
				<defs>
					<rect id="SVGID_49_" x="494.3" y="705.3" width="27.4" height="17.5"/>
				</defs>
				<clipPath id="SVGID_50_">
					<use xlink:href="#SVGID_49_"  style="overflow:visible;"/>
				</clipPath>
				<g class="st28">
					<text transform="matrix(1 0 0 1 494.3096 718.21)" class="st24 st25 st26">2016</text>
				</g>
			</g>
		</g>
		<g class="st22">
			<g>
				<defs>
					<rect id="SVGID_51_" x="725.9" y="705.3" width="27.4" height="17.5"/>
				</defs>
				<clipPath id="SVGID_52_">
					<use xlink:href="#SVGID_51_"  style="overflow:visible;"/>
				</clipPath>
				<g class="st29">
					<text transform="matrix(1 0 0 1 725.9326 718.21)" class="st24 st25 st26">2017</text>
				</g>
			</g>
		</g>
		<g class="st22">
			<g>
				<defs>
					<rect id="SVGID_53_" x="956.9" y="706.3" width="27.4" height="17.5"/>
				</defs>
				<clipPath id="SVGID_54_">
					<use xlink:href="#SVGID_53_"  style="overflow:visible;"/>
				</clipPath>
				<g class="st30">
					<text transform="matrix(1 0 0 1 956.9268 719.2109)" class="st24 st25 st26">2018</text>
				</g>
			</g>
		</g>
	</g>
	<polyline class="st31" points="47,704 47,699.5 1183,699.5 1183,704 	"/>
	<line class="st31" x1="47" y1="699.1" x2="47" y2="704"/>
	<line class="st31" x1="104" y1="699.1" x2="104" y2="704"/>
	<line class="st31" x1="161.6" y1="699.1" x2="161.6" y2="704"/>
	<line class="st31" x1="219.8" y1="699.1" x2="219.8" y2="704"/>
	<line class="st31" x1="278" y1="699.1" x2="278" y2="704"/>
	<line class="st31" x1="335" y1="699.1" x2="335" y2="704"/>
	<line class="st31" x1="392.6" y1="699.1" x2="392.6" y2="704"/>
	<line class="st31" x1="450.8" y1="699.1" x2="450.8" y2="704"/>
	<line class="st31" x1="509" y1="699.1" x2="509" y2="704"/>
	<line class="st31" x1="566.6" y1="699.1" x2="566.6" y2="704"/>
	<line class="st31" x1="624.2" y1="699.1" x2="624.2" y2="704"/>
	<line class="st31" x1="682.4" y1="699.1" x2="682.4" y2="704"/>
	<line class="st31" x1="740.6" y1="699.1" x2="740.6" y2="704"/>
	<line class="st31" x1="797.6" y1="699.1" x2="797.6" y2="704"/>
	<line class="st31" x1="855.2" y1="699.1" x2="855.2" y2="704"/>
	<line class="st31" x1="913.4" y1="699.1" x2="913.4" y2="704"/>
	<line class="st31" x1="971.6" y1="699.1" x2="971.6" y2="704"/>
	<line class="st31" x1="1028.6" y1="699.1" x2="1028.6" y2="704"/>
	<line class="st31" x1="1086.2" y1="699.1" x2="1086.2" y2="704"/>
	<line class="st31" x1="1144.4" y1="699.1" x2="1144.4" y2="704"/>
	<g class="st0">
		<defs>
			<rect id="SVGID_55_" width="1366" height="800"/>
		</defs>
		<clipPath id="SVGID_56_">
			<use xlink:href="#SVGID_55_"  style="overflow:visible;"/>
		</clipPath>
		<g class="st32">
			<g>
				<defs>
					<rect id="SVGID_57_" x="95.9" y="706.6" width="16.4" height="11.6"/>
				</defs>
				<clipPath id="SVGID_58_">
					<use xlink:href="#SVGID_57_"  style="overflow:visible;"/>
				</clipPath>
				<g class="st33">
					<text transform="matrix(1 0 0 1 95.8652 715.207)" class="st24 st34 st35">April</text>
				</g>
			</g>
		</g>
		<g class="st32">
			<g>
				<defs>
					<rect id="SVGID_59_" x="154.4" y="706.6" width="14.6" height="11.6"/>
				</defs>
				<clipPath id="SVGID_60_">
					<use xlink:href="#SVGID_59_"  style="overflow:visible;"/>
				</clipPath>
				<g class="st36">
					<text transform="matrix(1 0 0 1 154.3555 715.207)" class="st24 st34 st35">July</text>
				</g>
			</g>
		</g>
		<g class="st32">
			<g>
				<defs>
					<rect id="SVGID_61_" x="205.4" y="706.6" width="29.3" height="11.6"/>
				</defs>
				<clipPath id="SVGID_62_">
					<use xlink:href="#SVGID_61_"  style="overflow:visible;"/>
				</clipPath>
				<g class="st37">
					<text transform="matrix(1 0 0 1 205.3623 715.207)" class="st24 st34 st35">October</text>
				</g>
			</g>
		</g>
		<g class="st32">
			<g>
				<defs>
					<rect id="SVGID_63_" x="326.8" y="706.6" width="16.4" height="11.6"/>
				</defs>
				<clipPath id="SVGID_64_">
					<use xlink:href="#SVGID_63_"  style="overflow:visible;"/>
				</clipPath>
				<g class="st38">
					<text transform="matrix(1 0 0 1 326.8574 715.207)" class="st24 st34 st35">April</text>
				</g>
			</g>
		</g>
		<g class="st32">
			<g>
				<defs>
					<rect id="SVGID_65_" x="385.3" y="706.6" width="14.6" height="11.6"/>
				</defs>
				<clipPath id="SVGID_66_">
					<use xlink:href="#SVGID_65_"  style="overflow:visible;"/>
				</clipPath>
				<g class="st39">
					<text transform="matrix(1 0 0 1 385.3486 715.207)" class="st24 st34 st35">July</text>
				</g>
			</g>
		</g>
		<g class="st32">
			<g>
				<defs>
					<rect id="SVGID_67_" x="436.4" y="706.6" width="29.3" height="11.6"/>
				</defs>
				<clipPath id="SVGID_68_">
					<use xlink:href="#SVGID_67_"  style="overflow:visible;"/>
				</clipPath>
				<g class="st40">
					<text transform="matrix(1 0 0 1 436.3545 715.207)" class="st24 st34 st35">October</text>
				</g>
			</g>
		</g>
		<g class="st32">
			<g>
				<defs>
					<rect id="SVGID_69_" x="558.5" y="706.6" width="16.4" height="11.6"/>
				</defs>
				<clipPath id="SVGID_70_">
					<use xlink:href="#SVGID_69_"  style="overflow:visible;"/>
				</clipPath>
				<g class="st41">
					<text transform="matrix(1 0 0 1 558.4814 715.207)" class="st24 st34 st35">April</text>
				</g>
			</g>
		</g>
		<g class="st32">
			<g>
				<defs>
					<rect id="SVGID_71_" x="617" y="706.6" width="14.6" height="11.6"/>
				</defs>
				<clipPath id="SVGID_72_">
					<use xlink:href="#SVGID_71_"  style="overflow:visible;"/>
				</clipPath>
				<g class="st42">
					<text transform="matrix(1 0 0 1 616.9736 715.207)" class="st24 st34 st35">July</text>
				</g>
			</g>
		</g>
		<g class="st32">
			<g>
				<defs>
					<rect id="SVGID_73_" x="668" y="706.6" width="29.3" height="11.6"/>
				</defs>
				<clipPath id="SVGID_74_">
					<use xlink:href="#SVGID_73_"  style="overflow:visible;"/>
				</clipPath>
				<g class="st43">
					<text transform="matrix(1 0 0 1 667.9795 715.207)" class="st24 st34 st35">October</text>
				</g>
			</g>
		</g>
		<g class="st32">
			<g>
				<defs>
					<rect id="SVGID_75_" x="789.5" y="706.6" width="16.4" height="11.6"/>
				</defs>
				<clipPath id="SVGID_76_">
					<use xlink:href="#SVGID_75_"  style="overflow:visible;"/>
				</clipPath>
				<g class="st44">
					<text transform="matrix(1 0 0 1 789.4746 715.207)" class="st24 st34 st35">April</text>
				</g>
			</g>
		</g>
		<g class="st32">
			<g>
				<defs>
					<rect id="SVGID_77_" x="848" y="706.6" width="14.6" height="11.6"/>
				</defs>
				<clipPath id="SVGID_78_">
					<use xlink:href="#SVGID_77_"  style="overflow:visible;"/>
				</clipPath>
				<g class="st45">
					<text transform="matrix(1 0 0 1 847.9668 715.207)" class="st24 st34 st35">July</text>
				</g>
			</g>
		</g>
		<g class="st32">
			<g>
				<defs>
					<rect id="SVGID_79_" x="899" y="706.6" width="29.3" height="11.6"/>
				</defs>
				<clipPath id="SVGID_80_">
					<use xlink:href="#SVGID_79_"  style="overflow:visible;"/>
				</clipPath>
				<g class="st46">
					<text transform="matrix(1 0 0 1 898.9717 715.207)" class="st24 st34 st35">October</text>
				</g>
			</g>
		</g>
		<g class="st32">
			<g>
				<defs>
					<rect id="SVGID_81_" x="1020.5" y="706.6" width="16.4" height="11.6"/>
				</defs>
				<clipPath id="SVGID_82_">
					<use xlink:href="#SVGID_81_"  style="overflow:visible;"/>
				</clipPath>
				<g class="st47">
					<text transform="matrix(1 0 0 1 1020.4668 715.207)" class="st24 st34 st35">April</text>
				</g>
			</g>
		</g>
		<g class="st32">
			<g>
				<defs>
					<rect id="SVGID_83_" x="1079" y="706.6" width="14.6" height="11.6"/>
				</defs>
				<clipPath id="SVGID_84_">
					<use xlink:href="#SVGID_83_"  style="overflow:visible;"/>
				</clipPath>
				<g class="st48">
					<text transform="matrix(1 0 0 1 1078.958 715.207)" class="st24 st34 st35">July</text>
				</g>
			</g>
		</g>
		<g class="st32">
			<g>
				<defs>
					<rect id="SVGID_85_" x="1130" y="706.6" width="29.3" height="11.6"/>
				</defs>
				<clipPath id="SVGID_86_">
					<use xlink:href="#SVGID_85_"  style="overflow:visible;"/>
				</clipPath>
				<g class="st49">
					<text transform="matrix(1 0 0 1 1129.9639 715.207)" class="st24 st34 st35">October</text>
				</g>
			</g>
		</g>
	</g>
	<g class="st0">
		<text transform="matrix(1 0 0 1 1236.0449 177.5879)" class="st50 st51">Korea         </text>
	</g>
	<g class="st0">
		<text transform="matrix(1 0 0 1 1236.0449 286.2598)" class="st50 st51">USA</text>
	</g>
	<g class="st0">
		<text transform="matrix(1 0 0 1 1236.0449 386.5957)" class="st50 st51">China</text>
	</g>
	<g class="st0">
		<text transform="matrix(1 0 0 1 1236.0449 457.6553)" class="st50 st52">Japan</text>
	</g>
	<g class="st0">
		<text transform="matrix(1 0 0 1 1236.0449 500.7832)" class="st50 st52">Canada</text>
	</g>
	<g class="st0">
		<text transform="matrix(1 0 0 1 1236.0449 527.5313)" class="st50 st52">Australia</text>
	</g>
	<g class="st0">
		<text transform="matrix(1 0 0 1 1236.0449 549.4072)" class="st50 st52">UK</text>
	</g>
	<g class="st0">
		<text transform="matrix(1 0 0 1 1236.0449 571.8594)"><tspan x="0" y="0" class="st50 st52 st53">T</tspan><tspan x="6" y="0" class="st50 st52">aiwan</tspan></text>
	</g>
	<g class="st0">
		<text transform="matrix(1 0 0 1 279.3809 245.0313)" class="st54 st50 st51">Korea         </text>
	</g>
	<g class="st0">
		<text transform="matrix(1 0 0 1 290.7251 324.7754)" class="st50 st51">USA</text>
	</g>
	<g class="st0">
		<text transform="matrix(1 0 0 1 285.8291 374.8711)" class="st54 st50 st51">China</text>
	</g>
	<g class="st0">
		<text transform="matrix(1 0 0 1 330.6348 404.3154)" class="st54 st50 st52">Japan</text>
	</g>
	<g class="st0">
		<text transform="matrix(0.9931 -0.1169 0.1169 0.9931 317.1841 484.5528)" class="st54 st50 st35">Canada</text>
	</g>
	<g class="st0">
		<text transform="matrix(1 0 0 1 316.6123 432.1025)" class="st50 st52">Australia</text>
	</g>
	<g class="st0">
		<text transform="matrix(1 0 0 1 322.2856 449.7061)" class="st54 st50 st35">Singapore</text>
	</g>
	<g class="st0">
		<text transform="matrix(0.9886 -0.1507 0.1507 0.9886 320.9702 499.8994)"><tspan x="0" y="0" class="st54 st50 st35 st53">T</tspan><tspan x="5" y="0" class="st54 st50 st35">aiwan</tspan></text>
	</g>
	<g class="st0">
		<text transform="matrix(0.9918 -0.1275 0.1275 0.9918 315.351 515.5839)" class="st54 st50 st35">Malaysia</text>
	</g>
	<g class="st0">
		<text transform="matrix(0.9992 -3.916268e-002 3.916268e-002 0.9992 339.3677 523.3145)" class="st54 st50 st55">Hongkong</text>
	</g>
	<g class="st0">
		<text transform="matrix(1 0 0 1 324.6353 466.9561)" class="st54 st50 st35">UK</text>
	</g>
	<g class="st0">
		<text transform="matrix(1 0 0 1 893.3809 217.7256)" class="st54 st50 st51">Korea         </text>
	</g>
	<g class="st0">
		<text transform="matrix(1 0 0 1 961.7168 412.0615)" class="st50 st51">USA</text>
	</g>
	<g class="st0">
		<text transform="matrix(1 0 0 1 934.8213 316.0938)" class="st54 st50 st51">China</text>
	</g>
	<g class="st0">
		<text transform="matrix(1 0 0 1 991.6348 470.3076)" class="st54 st50 st52">Japan</text>
	</g>
	<g class="st0">
		<text transform="matrix(0.8439 -0.5364 0.5364 0.8439 995.8046 566.1141)" class="st54 st50 st35">Canada</text>
	</g>
	<g class="st0">
		<text transform="matrix(1 0 0 1 952.3896 520.4111)" class="st50 st52">Australia</text>
	</g>
	<g class="st0">
		<text transform="matrix(0.8175 -0.576 0.576 0.8175 999.4941 543.3653)"><tspan x="0" y="0" class="st54 st50 st35 st53">T</tspan><tspan x="5" y="0" class="st54 st50 st35">aiwan</tspan></text>
	</g>
	<g class="st0">
		<text transform="matrix(0.8175 -0.576 0.576 0.8175 990.3787 606.7178)" class="st54 st50 st35">Singapore</text>
	</g>
	<g class="st0">
		<text transform="matrix(0.9959 -9.071978e-002 9.071978e-002 0.9959 962.6905 633.7686)" class="st54 st50 st35">Malaysia</text>
	</g>
	<g class="st0">
		<text transform="matrix(0.9959 -9.071978e-002 9.071978e-002 0.9959 986.5313 644.0479)" class="st50 st35">Germany</text>
	</g>
	<g class="st0">
		<text transform="matrix(0.9959 -9.071978e-002 9.071978e-002 0.9959 987.9249 654.8262)" class="st50 st35">France</text>
	</g>
	<g class="st0">
		<text transform="matrix(0.9959 -9.071978e-002 9.071978e-002 0.9959 989.4218 665.082)" class="st50 st35">India</text>
	</g>
	<g class="st0">
		<text transform="matrix(0.9959 -9.071978e-002 9.071978e-002 0.9959 962.5331 675.585)" class="st50 st35">Indonesia</text>
	</g>
	<g class="st0">
		<text transform="matrix(0.9811 -0.1933 0.1933 0.9811 988.3222 618.4151)" class="st54 st50 st35">Hongkong</text>
	</g>
	<g class="st0">
		<text transform="matrix(1 0 0 1 966.6621 588.1904)" class="st54 st50 st35">UK</text>
	</g>
	<g class="st0">
		<text transform="matrix(1 0 0 1 1236.0449 589.0605)" class="st50 st52">Singapore</text>
	</g>
	<g class="st0">
		<text transform="matrix(1 0 0 1 1236.0449 603.4609)" class="st50 st52">Malaysia</text>
	</g>
	<g class="st0">
		<text transform="matrix(1 0 0 1 1236.0449 617.8604)" class="st50 st52">Germany</text>
	</g>
	<g class="st0">
		<text transform="matrix(1 0 0 1 1236.0449 632.2607)" class="st50 st52">Indonesia</text>
	</g>
	<g class="st0">
		<text transform="matrix(1 0 0 1 1236.0449 646.6602)" class="st50 st52">France</text>
	</g>
	<g class="st0">
		<text transform="matrix(1 0 0 1 1236.0449 661.0605)" class="st50 st52">Thailand</text>
	</g>
	<g class="st0">
		<text transform="matrix(1 0 0 1 1236.0449 675.4609)"><tspan x="0" y="0" class="st50 st52">V</tspan><tspan x="7.8" y="0" class="st50 st52">ietnam</tspan></text>
	</g>
	<g class="st0">
		<text transform="matrix(1 0 0 1 1236.0449 689.8604)"><tspan x="0" y="0" class="st50 st52">Saudi</tspan><tspan x="30.7" y="0" class="st50 st52"> </tspan><tspan x="33.4" y="0" class="st50 st52">Arabia</tspan></text>
	</g>
	<g class="st0">
		<text transform="matrix(1 0 0 1 1236.0449 704.2607)" class="st50 st52">Netherlands</text>
	</g>
	<g class="st0">
		<text transform="matrix(1 0 0 1 1236.0449 718.6602)" class="st50 st52">Guam</text>
	</g>
	<g class="st0">
		<text transform="matrix(1 0 0 1 1236.0449 733.0605)" class="st50 st52">Hongkong</text>
	</g>
	<g class="st0">
		<text transform="matrix(1 0 0 1 1236.0449 747.4609)" class="st50 st52">India</text>
	</g>
	<g class="st0">
		<text transform="matrix(1 0 0 1 362.1445 596.7725)" class="st24 st50 st35">India</text>
	</g>
	<g class="st0">
		<text transform="matrix(1 0 0 1 362.1445 606.7725)" class="st24 st50 st35">Germany</text>
	</g>
	<g class="st0">
		<text transform="matrix(1 0 0 1 362.1445 616.7725)" class="st24 st50 st35">Thailand</text>
	</g>
	<g class="st0">
		<text transform="matrix(1 0 0 1 362.1445 626.7725)" class="st24 st50 st35">France</text>
	</g>
	<g class="st0">
		<text transform="matrix(1 0 0 1 362.1445 636.7725)" class="st24 st50 st35">Indonesia</text>
	</g>
	<g class="st0">
		<text transform="matrix(1 0 0 1 362.1445 646.7725)"><tspan x="0" y="0" class="st24 st50 st35">Saudi</tspan><tspan x="25.6" y="0" class="st24 st50 st35"> </tspan><tspan x="27.8" y="0" class="st24 st50 st35">Arabia</tspan></text>
	</g>
	<g class="st0">
		<text transform="matrix(1 0 0 1 362.1445 656.7725)"><tspan x="0" y="0" class="st24 st50 st35">V</tspan><tspan x="6.5" y="0" class="st24 st50 st35">ietnam</tspan></text>
	</g>
	<g class="st0">
		<text transform="matrix(1 0 0 1 362.1445 666.7725)" class="st24 st50 st35">Netherlands</text>
	</g>
	<g class="st0">
		<text transform="matrix(1 0 0 1 362.1445 676.7725)" class="st24 st50 st35">Guam</text>
	</g>
	<line class="st56" x1="971.5" y1="49" x2="971.5" y2="51"/>
	<line class="st57" x1="971.5" y1="54" x2="971.5" y2="696"/>
	<line class="st56" x1="971.5" y1="697" x2="971.5" y2="699"/>
	<line class="st56" x1="525.5" y1="49" x2="525.5" y2="51"/>
	<line class="st57" x1="525.5" y1="54" x2="525.5" y2="696"/>
	<line class="st56" x1="525.5" y1="697" x2="525.5" y2="699"/>
	<line class="st56" x1="624.5" y1="49" x2="624.5" y2="51"/>
	<line class="st57" x1="624.5" y1="54" x2="624.5" y2="696"/>
	<line class="st56" x1="624.5" y1="697" x2="624.5" y2="699"/>
	<line class="st58" x1="1186" y1="584.5" x2="1224" y2="584.5"/>
	<line class="st58" x1="1186" y1="566.5" x2="1224" y2="566.5"/>
	<line class="st58" x1="1186" y1="544.5" x2="1224" y2="544.5"/>
	<line class="st58" x1="1186" y1="522.5" x2="1224" y2="522.5"/>
	<line class="st58" x1="1186" y1="496.5" x2="1224" y2="496.5"/>
	<line class="st58" x1="1186" y1="453.5" x2="1224" y2="453.5"/>
	<line class="st58" x1="1186" y1="380.5" x2="1224" y2="380.5"/>
	<line class="st58" x1="1186" y1="280.5" x2="1224" y2="280.5"/>
	<line class="st58" x1="1186" y1="172.5" x2="1224" y2="172.5"/>
	<line class="st58" x1="1186" y1="598.5" x2="1224" y2="598.5"/>
	<line class="st58" x1="1186" y1="609.5" x2="1224" y2="612.8"/>
	<line class="st58" x1="1186" y1="618.5" x2="1224" y2="628"/>
	<line class="st58" x1="1186" y1="625.5" x2="1224" y2="642.2"/>
	<line class="st58" x1="1186" y1="631.5" x2="1224" y2="656.2"/>
	<line class="st58" x1="1186" y1="637.5" x2="1224" y2="671"/>
	<line class="st58" x1="1186" y1="643.5" x2="1224" y2="685.3"/>
	<line class="st58" x1="1186" y1="648.5" x2="1224" y2="699.1"/>
	<line class="st58" x1="1186" y1="652.5" x2="1224" y2="713.2"/>
	<line class="st58" x1="1186" y1="655.5" x2="1224" y2="728"/>
	<line class="st58" x1="1186" y1="657.1" x2="1224" y2="741.5"/>
	<g class="st0">
		<defs>
			<rect id="SVGID_87_" width="1366" height="800"/>
		</defs>
		<clipPath id="SVGID_88_">
			<use xlink:href="#SVGID_87_"  style="overflow:visible;"/>
		</clipPath>
		<path class="st59" d="M1232.5,172.5c0,4.9-4,8.9-8.9,8.9s-8.9-4-8.9-8.9c0-4.9,4-8.9,8.9-8.9S1232.5,167.5,1232.5,172.5"/>
	</g>
	<g class="st0">
		<text transform="matrix(1 0 0 1 1220.3115 175.9463)" class="st54 st60 st61">1</text>
	</g>
	<g class="st0">
		<defs>
			<rect id="SVGID_89_" width="1366" height="800"/>
		</defs>
		<clipPath id="SVGID_90_">
			<use xlink:href="#SVGID_89_"  style="overflow:visible;"/>
		</clipPath>
		<path class="st62" d="M1232.5,280.5c0,4.9-4,8.9-8.9,8.9s-8.9-4-8.9-8.9c0-4.9,4-8.9,8.9-8.9S1232.5,275.5,1232.5,280.5"/>
	</g>
	<g class="st0">
		<text transform="matrix(1 0 0 1 1220.3115 283.9463)" class="st54 st60 st61">2</text>
	</g>
	<g class="st0">
		<defs>
			<rect id="SVGID_91_" width="1366" height="800"/>
		</defs>
		<clipPath id="SVGID_92_">
			<use xlink:href="#SVGID_91_"  style="overflow:visible;"/>
		</clipPath>
		<path class="st63" d="M1232.5,380.5c0,4.9-4,8.9-8.9,8.9s-8.9-4-8.9-8.9c0-4.9,4-8.9,8.9-8.9S1232.5,375.5,1232.5,380.5"/>
	</g>
	<g class="st0">
		<text transform="matrix(1 0 0 1 1220.3115 383.9463)" class="st54 st60 st61">3</text>
	</g>
	<g class="st0">
		<defs>
			<rect id="SVGID_93_" width="1366" height="800"/>
		</defs>
		<clipPath id="SVGID_94_">
			<use xlink:href="#SVGID_93_"  style="overflow:visible;"/>
		</clipPath>
		<path class="st64" d="M1229.5,453.5c0,3.3-2.7,6-6,6c-3.3,0-6-2.7-6-6c0-3.3,2.7-6,6-6C1226.8,447.5,1229.5,450.2,1229.5,453.5"/>
	</g>
	<g class="st0">
		<text transform="matrix(1 0 0 1 1221.334 456.0615)" class="st54 st60 st65">4</text>
	</g>
	<g class="st0">
		<defs>
			<rect id="SVGID_95_" width="1366" height="800"/>
		</defs>
		<clipPath id="SVGID_96_">
			<use xlink:href="#SVGID_95_"  style="overflow:visible;"/>
		</clipPath>
		<path class="st66" d="M1229.5,496.5c0,3.3-2.7,6-6,6c-3.3,0-6-2.7-6-6c0-3.3,2.7-6,6-6C1226.8,490.5,1229.5,493.2,1229.5,496.5"/>
	</g>
	<g class="st0">
		<text transform="matrix(1 0 0 1 1221.334 499.0615)" class="st54 st60 st65">5</text>
	</g>
	<g class="st0">
		<defs>
			<rect id="SVGID_97_" width="1366" height="800"/>
		</defs>
		<clipPath id="SVGID_98_">
			<use xlink:href="#SVGID_97_"  style="overflow:visible;"/>
		</clipPath>
		<path class="st67" d="M1229.5,522.5c0,3.3-2.7,6-6,6c-3.3,0-6-2.7-6-6c0-3.3,2.7-6,6-6C1226.8,516.5,1229.5,519.2,1229.5,522.5"/>
	</g>
	<g class="st0">
		<text transform="matrix(1 0 0 1 1221.334 525.0615)" class="st54 st60 st65">6</text>
	</g>
	<g class="st0">
		<defs>
			<rect id="SVGID_99_" width="1366" height="800"/>
		</defs>
		<clipPath id="SVGID_100_">
			<use xlink:href="#SVGID_99_"  style="overflow:visible;"/>
		</clipPath>
		<path class="st68" d="M1229.5,544.5c0,3.3-2.7,6-6,6c-3.3,0-6-2.7-6-6c0-3.3,2.7-6,6-6C1226.8,538.5,1229.5,541.2,1229.5,544.5"/>
	</g>
	<g class="st0">
		<text transform="matrix(1 0 0 1 1221.334 547.0615)" class="st54 st60 st65">7</text>
	</g>
	<g class="st0">
		<defs>
			<rect id="SVGID_101_" width="1366" height="800"/>
		</defs>
		<clipPath id="SVGID_102_">
			<use xlink:href="#SVGID_101_"  style="overflow:visible;"/>
		</clipPath>
		<path class="st69" d="M1229.5,566.5c0,3.3-2.7,6-6,6c-3.3,0-6-2.7-6-6c0-3.3,2.7-6,6-6C1226.8,560.5,1229.5,563.2,1229.5,566.5"/>
	</g>
	<g class="st0">
		<text transform="matrix(1 0 0 1 1221.334 569.0615)" class="st54 st60 st65">8</text>
	</g>
	<g class="st0">
		<defs>
			<rect id="SVGID_103_" width="1366" height="800"/>
		</defs>
		<clipPath id="SVGID_104_">
			<use xlink:href="#SVGID_103_"  style="overflow:visible;"/>
		</clipPath>
		<path class="st70" d="M1229.5,584.5c0,3.3-2.7,6-6,6c-3.3,0-6-2.7-6-6c0-3.3,2.7-6,6-6C1226.8,578.5,1229.5,581.2,1229.5,584.5"/>
	</g>
	<g class="st0">
		<text transform="matrix(1 0 0 1 1221.334 587.0615)" class="st54 st60 st65">9</text>
	</g>
	<g class="st0">
		<defs>
			<rect id="SVGID_105_" width="1366" height="800"/>
		</defs>
		<clipPath id="SVGID_106_">
			<use xlink:href="#SVGID_105_"  style="overflow:visible;"/>
		</clipPath>
		<path class="st71" d="M1229.5,598.5c0,3.3-2.7,6-6,6c-3.3,0-6-2.7-6-6c0-3.3,2.7-6,6-6C1226.8,592.5,1229.5,595.2,1229.5,598.5"/>
	</g>
	<g class="st0">
		<text transform="matrix(1 0 0 1 1219.2891 601.0615)" class="st54 st60 st65">10</text>
	</g>
	<g class="st0">
		<defs>
			<rect id="SVGID_107_" width="1366" height="800"/>
		</defs>
		<clipPath id="SVGID_108_">
			<use xlink:href="#SVGID_107_"  style="overflow:visible;"/>
		</clipPath>
		<path class="st72" d="M1229.5,613.5c0,3.3-2.7,6-6,6c-3.3,0-6-2.7-6-6c0-3.3,2.7-6,6-6C1226.8,607.5,1229.5,610.2,1229.5,613.5"/>
	</g>
	<g class="st0">
		<text transform="matrix(1 0 0 1 1219.4922 616.0615)"><tspan x="0" y="0" class="st54 st60 st65">1</tspan><tspan x="3.7" y="0" class="st54 st60 st65">1</tspan></text>
	</g>
	<g class="st0">
		<defs>
			<rect id="SVGID_109_" width="1366" height="800"/>
		</defs>
		<clipPath id="SVGID_110_">
			<use xlink:href="#SVGID_109_"  style="overflow:visible;"/>
		</clipPath>
		<path class="st73" d="M1229.5,628.5c0,3.3-2.7,6-6,6c-3.3,0-6-2.7-6-6c0-3.3,2.7-6,6-6C1226.8,622.5,1229.5,625.2,1229.5,628.5"/>
	</g>
	<g class="st0">
		<text transform="matrix(1 0 0 1 1219.2891 631.0615)" class="st54 st60 st65">12</text>
	</g>
	<g class="st0">
		<defs>
			<rect id="SVGID_111_" width="1366" height="800"/>
		</defs>
		<clipPath id="SVGID_112_">
			<use xlink:href="#SVGID_111_"  style="overflow:visible;"/>
		</clipPath>
		<path class="st74" d="M1229.5,642.5c0,3.3-2.7,6-6,6c-3.3,0-6-2.7-6-6c0-3.3,2.7-6,6-6C1226.8,636.5,1229.5,639.2,1229.5,642.5"/>
	</g>
	<g class="st0">
		<text transform="matrix(1 0 0 1 1219.2891 645.0615)" class="st54 st60 st65">13</text>
	</g>
	<g class="st0">
		<defs>
			<rect id="SVGID_113_" width="1366" height="800"/>
		</defs>
		<clipPath id="SVGID_114_">
			<use xlink:href="#SVGID_113_"  style="overflow:visible;"/>
		</clipPath>
		<path class="st75" d="M1229.5,656.5c0,3.3-2.7,6-6,6c-3.3,0-6-2.7-6-6c0-3.3,2.7-6,6-6C1226.8,650.5,1229.5,653.2,1229.5,656.5"/>
	</g>
	<g class="st0">
		<text transform="matrix(1 0 0 1 1219.2891 659.0615)" class="st54 st60 st65">14</text>
	</g>
	<g class="st0">
		<defs>
			<rect id="SVGID_115_" width="1366" height="800"/>
		</defs>
		<clipPath id="SVGID_116_">
			<use xlink:href="#SVGID_115_"  style="overflow:visible;"/>
		</clipPath>
		<path class="st76" d="M1229.5,671.5c0,3.3-2.7,6-6,6c-3.3,0-6-2.7-6-6c0-3.3,2.7-6,6-6C1226.8,665.5,1229.5,668.2,1229.5,671.5"/>
	</g>
	<g class="st0">
		<text transform="matrix(1 0 0 1 1219.2891 674.0615)" class="st54 st60 st65">15</text>
	</g>
	<g class="st0">
		<defs>
			<rect id="SVGID_117_" width="1366" height="800"/>
		</defs>
		<clipPath id="SVGID_118_">
			<use xlink:href="#SVGID_117_"  style="overflow:visible;"/>
		</clipPath>
		<path class="st77" d="M1229.5,685.5c0,3.3-2.7,6-6,6c-3.3,0-6-2.7-6-6c0-3.3,2.7-6,6-6C1226.8,679.5,1229.5,682.2,1229.5,685.5"/>
	</g>
	<g class="st0">
		<text transform="matrix(1 0 0 1 1219.2891 688.0615)" class="st54 st60 st65">16</text>
	</g>
	<g class="st0">
		<defs>
			<rect id="SVGID_119_" width="1366" height="800"/>
		</defs>
		<clipPath id="SVGID_120_">
			<use xlink:href="#SVGID_119_"  style="overflow:visible;"/>
		</clipPath>
		<path class="st78" d="M1229.5,699.5c0,3.3-2.7,6-6,6c-3.3,0-6-2.7-6-6c0-3.3,2.7-6,6-6C1226.8,693.5,1229.5,696.2,1229.5,699.5"/>
	</g>
	<g class="st0">
		<text transform="matrix(1 0 0 1 1219.2891 702.0615)" class="st54 st60 st65">17</text>
	</g>
	<g class="st0">
		<defs>
			<rect id="SVGID_121_" width="1366" height="800"/>
		</defs>
		<clipPath id="SVGID_122_">
			<use xlink:href="#SVGID_121_"  style="overflow:visible;"/>
		</clipPath>
		<path class="st79" d="M1229.5,714.5c0,3.3-2.7,6-6,6c-3.3,0-6-2.7-6-6c0-3.3,2.7-6,6-6C1226.8,708.5,1229.5,711.2,1229.5,714.5"/>
	</g>
	<g class="st0">
		<text transform="matrix(1 0 0 1 1219.2891 717.0615)" class="st54 st60 st65">18</text>
	</g>
	<g class="st0">
		<defs>
			<rect id="SVGID_123_" width="1366" height="800"/>
		</defs>
		<clipPath id="SVGID_124_">
			<use xlink:href="#SVGID_123_"  style="overflow:visible;"/>
		</clipPath>
		<path class="st80" d="M1229.5,728.5c0,3.3-2.7,6-6,6c-3.3,0-6-2.7-6-6c0-3.3,2.7-6,6-6C1226.8,722.5,1229.5,725.2,1229.5,728.5"/>
	</g>
	<g class="st0">
		<text transform="matrix(1 0 0 1 1219.2891 731.0615)" class="st54 st60 st65">19</text>
	</g>
	<g class="st0">
		<defs>
			<rect id="SVGID_125_" width="1366" height="800"/>
		</defs>
		<clipPath id="SVGID_126_">
			<use xlink:href="#SVGID_125_"  style="overflow:visible;"/>
		</clipPath>
		<path class="st81" d="M1229.5,742.5c0,3.3-2.7,6-6,6c-3.3,0-6-2.7-6-6c0-3.3,2.7-6,6-6C1226.8,736.5,1229.5,739.2,1229.5,742.5"/>
	</g>
	<g class="st0">
		<text transform="matrix(1 0 0 1 1219.2891 745.0615)" class="st54 st60 st65">20</text>
	</g>
	<g class="st0">
		<defs>
			<rect id="SVGID_127_" width="1366" height="800"/>
		</defs>
		<clipPath id="SVGID_128_">
			<use xlink:href="#SVGID_127_"  style="overflow:visible;"/>
		</clipPath>
		<polyline class="st82" points="354.5,531 354.5,593.5 359,593.5 		"/>
		<polyline class="st82" points="349.5,538 349.5,603.5 359,603.5 		"/>
		<polyline class="st82" points="345.5,546 345.5,613.5 359,613.5 		"/>
		<polyline class="st82" points="340.5,551 340.5,622.5 359,622.5 		"/>
		<polyline class="st82" points="335.5,559 335.5,633.5 359,633.5 		"/>
		<polyline class="st82" points="331.5,559 331.5,643.5 359,643.5 		"/>
		<polyline class="st82" points="326.5,573 326.5,652.5 359,652.5 		"/>
		<polyline class="st82" points="322.5,578 322.5,663.5 359,663.5 		"/>
		<polyline class="st82" points="317.5,582 317.5,673.5 359,673.5 		"/>
	</g>
	<g class="st0">
		<text transform="matrix(1 0 0 1 779.0742 55.938)" class="st50 st35">The highest number of tourist arrival was </text>
	</g>
	<g class="st0">
		<text transform="matrix(1 0 0 1 779.0742 67.938)" class="st50 st35">on January 2018 ever since 2014.</text>
	</g>
	<g class="st0">
		<text transform="matrix(1 0 0 1 1214.6143 106.8882)"><tspan x="0" y="0" class="st50 st35 st53">T</tspan><tspan x="5" y="0" class="st50 st35">op 20 foreign tourists </tspan></text>
	</g>
	<g class="st0">
		<text transform="matrix(1 0 0 1 1214.6143 118.8882)" class="st50 st35">in the Philippines as of </text>
	</g>
	<g class="st0">
		<text transform="matrix(1 0 0 1 1214.6143 130.8882)" class="st50 st35">December 2018:</text>
	</g>
	<g class="st0">
		<text transform="matrix(1 0 0 1 544.0044 55.938)" class="st50 st35">The months of </text>
	</g>
	<g class="st0">
		<text transform="matrix(1 0 0 1 546.2241 67.938)" class="st50 st35">February and </text>
	</g>
	<g class="st0">
		<text transform="matrix(1 0 0 1 540.9443 79.938)" class="st50 st35">July tends to be </text>
	</g>
	<g class="st0">
		<text transform="matrix(1 0 0 1 543.1743 91.938)" class="st50 st35">the cyclic peak </text>
	</g>
	<g class="st0">
		<text transform="matrix(1 0 0 1 537.6143 103.938)" class="st50 st35">season for tourist </text>
	</g>
	<g class="st0">
		<text transform="matrix(1 0 0 1 559.854 115.938)" class="st50 st35">arrivals</text>
	</g>
	<g class="st0">
		<text transform="matrix(1 0 0 1 47.9941 55.938)"><tspan x="0" y="0" class="st50 st35">Korea has maintainted it</tspan><tspan x="107.8" y="0" class="st50 st35"></tspan><tspan x="109.9" y="0" class="st50 st35">s top spot having the most number </tspan></text>
	</g>
	<g class="st0">
		<text transform="matrix(1 0 0 1 47.9941 67.938)"><tspan x="0" y="0" class="st50 st35">of foreign tourists in the Philippines. US</tspan><tspan x="174.5" y="0" class="st50 st35">A</tspan><tspan x="180.7" y="0" class="st50 st35"> and China have </tspan></text>
	</g>
	<g class="st0">
		<text transform="matrix(1 0 0 1 47.9941 79.938)" class="st50 st35">been vying for the second spot since 2014.</text>
	</g>
	<g class="st0">
		<text transform="matrix(1 0 0 1 63.6357 633.917)" class="st24 st60 st83">Data source:</text>
	</g>
	<g class="st0">
		<text transform="matrix(1 0 0 1 63.6357 643.5166)"><tspan x="0" y="0" class="st24 st50 st83">T</tspan><tspan x="4" y="0" class="st24 st50 st83">ourism Demand Statistics - </tspan></text>
	</g>
	<g class="st0">
		<text transform="matrix(1 0 0 1 63.6357 653.1172)"><tspan x="0" y="0" class="st24 st50 st83">Department of</tspan><tspan x="50.7" y="0" class="st24 st50 st83"> </tspan><tspan x="52.8" y="0" class="st24 st50 st83">T</tspan><tspan x="56.8" y="0" class="st24 st50 st83">ourism, Retrieved </tspan></text>
	</g>
	<g class="st0">
		<text transform="matrix(1 0 0 1 63.6357 662.7168)" class="st24 st50 st83">from </text>
	</g>
	<g class="st0">
		<text transform="matrix(1 0 0 1 81.8594 662.7168)"><tspan x="0" y="0" class="st24 st84 st83">ww</tspan><tspan x="11.6" y="0" class="st24 st84 st83">w</tspan><tspan x="16.9" y="0" class="st24 st84 st83">.tourism.go</tspan><tspan x="56.5" y="0" class="st24 st84 st83">v</tspan><tspan x="59.9" y="0" class="st24 st84 st83">.ph/</tspan></text>
	</g>
	<g class="st0">
		<text transform="matrix(1 0 0 1 63.6357 672.3174)" class="st24 st84 st83">tourism_dem_sup_pub.aspx</text>
	</g>
	<g class="st0">
		<text transform="matrix(1 0 0 1 164.1396 672.3174)" class="st24 st50 st83">, </text>
	</g>
	<g class="st0">
		<text transform="matrix(1 0 0 1 63.6357 681.917)" class="st24 st50 st83">Accessed on October 7, 2019</text>
	</g>
</g>
</svg>
